<svg xmlns="http://www.w3.org/2000/svg" viewBox="0 0 479.9 429.45"><defs><style>.cls-1{fill:#fff;}</style></defs><g id="Layer_2" data-name="Layer 2"><g id="Layer_1-2" data-name="Layer 1"><path class="cls-1" d="M53.58,100.44c7.73,4.42,11,8.28,11,8.28l6.07,2.21s1.11.55,2.76,4.42,5.94,10.77,14.64,9.11,9.52-3.31,10.77-4.14a5.35,5.35,0,0,0,2.07-4.56V105.12c0,.29-2.49-.12,0-2.61l2.48-2.48s-1.65-4.56,0-6.22-.83-2.48,0-5.79-1.65-6.63-1.65-6.63-7.87,5.8-9.94,6.21-5-.83-5.39-2.07,2.49-.41-.41-1.24-5.39-1.24-7-.83a21.22,21.22,0,0,1-5.72.41c-3,0-11.68-2.48-11.68-2.48s-9.94-2.49-11.18-2.9-10.1,2-7.87,7C42.54,85.53,45.85,96,53.58,100.44Z"/><path class="cls-1" d="M477.14,364.41c-1.38-1.39-3-1.94-5.24-3s-4.79-2.49-4.79-2.49S449.25,344.25,443.18,344s-19.05-3.31-21.54-3.59-14.08-1.65-14.08-1.65-21.54-3.32-24.3-4.42-16.29-4.7-18.77-7.18-4.14-5-6.08-5.8a63.57,63.57,0,0,0-6.62-2.48,25.94,25.94,0,0,1-4.7-2.21s-3.86-3-4.69-5.53a32.34,32.34,0,0,1-1.11-6.35l5.8-21s4.42-13.81,4.42-16.84-.55-3.87.55-6.63,3.32-7.46,4.14-10.77,1.66-7.45.56-11.32-3.32-6.35-3.59-9.66-3-27.89-2.76-29.27.27-4.14,1.93-5.25,10.21-6.62,15.46-6.62,8-1.11,14.91-1.38,8.56,0,12.43-.28,4.14-.28,5.52-1.1-1.38-2.49,2.76-1.39l4.14,1.11a26.94,26.94,0,0,1,3-4.69c1.66-1.94,5.8-3.59,5.8-3.59s-3.32-7.18-3.87-8a41.75,41.75,0,0,1-1.93-5.52c-.55-1.66-2.21.55-.55-1.66s3.86-3,4.41-3.87,2.77-2.21,1.11-3.59-3.87-3-4.7-3.59-4.41-3.31-4.41-3.31l-2.21-2.76s-.28-2.49-1.11-2.76-6.62-2.76-6.62-2.76-4.7-1.38-6.63-.55-4.42,1.93-5,2.76a4.54,4.54,0,0,1-3.31,1.93c-1.38,0-4.42.28-5.53,0s-5,.55-5,.55L362.83,149l-12.15,12.42a6.15,6.15,0,0,1-4.69,2.21h-5.52s-6.63,9.66-8,9.94-5.25,3.87-8,4.14-3.86.55-5.52,2.21-4.14,3.87-6.08,5.8a61.4,61.4,0,0,0-4.69,5.8c-1.1,1.38-5,7.45-8,3.59a8.77,8.77,0,0,1-.55-10.22c1.38-2.21,3-4.69,3-6.35s.55-1.66-.28-4.42-2.21-3-.83-4.14,4.42-3.59,7.18-5.8,3.87-6.07,4.42-8,4.14-8,3.87-11.32.27-5.79,2.48-9.38,5-9.39,5-12.15,1.11-7.18-.27-9.39-3.32-3.87-3.87-6.63-.55-6.07-1.66-7.45-3.59-2.76-4.69-4.42-3.31-5.52-5.8-6.63-15.19,3-15.19,3l-5.24,2.21s-6.35,6.35-8.56,10.49-5.52,10.49-7.46,12.7l-1.93,2.21-5.52,1.66s-3.31,9.39-5.8,11.32a55.75,55.75,0,0,0-4.69,4.14s-5.25,4.69-5.25,7.46-2.76,4.14-2.76,4.14,1.66,3.86,2.76,3.59,4.14-3,5-4.42,2.76-3,3.59-5a19,19,0,0,0,1.1-4.69s4.42,0,5.8-1.39,2.76-4.69,5.52-5.79,7.18-5.57,7.46-5.83,1.38-3,2.48-1.63,0,2.49,1.94,5.52a16.9,16.9,0,0,1,2.48,9.12c0,2.76-3.59,5.52-4.69,7.73s-1.66,3-1.66,6.07-.83,4.69-.83,6.9-1.93,5.8-3.31,10.77-5.8,9.94-7.18,11.88-4.42,6.9-4.42,6.9,2.76,3.31-.82,6.9-20.71,19.88-23.75,24-3.59,10.22-3.59,11.05a39.75,39.75,0,0,0-.28,6.35c.28,2.21,2.21,5.52,3.32,8.56s2.19,6.35,3.3,7.73,0,.55,1.11,1.38,1.66,7.45,1.66,7.45,1.93,5.53,4.14,5.53,4.14,0,4.7.83,2.48,5.79,5.24,5,2.21,1.1,3.59-2.77,1.38-4.14,2.21-5.24,2.21-3.32,4.14-3.59,1.94.55,4.42-1.93,2.76-5,3.87-7.74,2.76-7.17,5-9.38l2.21-2.21s26.23-14.65,26.23-16.16,2.48-3.46,3,0,1.11,9.53.83,10.36-2.48,10.49-2.76,11.32-5.25,8.56-5.25,9.66-.82,6.91-.82,8.84-3.59,6.35-3.59,7.18-2.76,2.48-3,4.14-3.31,7.73-3.31,7.73a7,7,0,0,1-6.08,4.7c-4.69.27-8.83-3-11.59-3.59a51.82,51.82,0,0,1-6.91-2.21s-3.86-.56-4.69,0-2.21,2.21-3.59,1.38-7.46-4.42-7.46-4.42-8.56-.83-11.59-2.21-10.77-2.76-11.88-3.31-4.41-.28-6.35-1.11-9.66-3.31-12.15-5-1-1.93-5.48-3.86-5.28-5-8-11.32-4.15-14.09-2.77-18.23a22.06,22.06,0,0,0,1.38-6.07l-8,1.93S171.48,213.92,164.86,212a28.55,28.55,0,0,0-13.26-.28s-3.86-.55-2.76-4.69,9.11-14.08,10.22-16,7.73-10.77,9.39-11.6a45.79,45.79,0,0,0,8.83-7.73c1.38-1.94,3-5.25,3.87-6.63s1.65-2.48,3.31-5a30.19,30.19,0,0,1,3.31-4.42c.83-.83-.55-12.15-4.69-17.67s-5.52-11.09-6.9-13.28-3-4.94-1.38-8,11.87-20.71,13-21.81,5.53-6.35,5.53-6.35-1.38-3.59.55-5,2.76-1.38,5-2.49,5.33-6.62,6.94-7.45,1.62-3.59,3.83-5.8.27-1.38,2.21-2.21a7.92,7.92,0,0,0,3.59-3.87A57,57,0,0,0,217,55.16a16.32,16.32,0,0,1,1.38-3.59,25,25,0,0,0,1.66-6.08S212.63,32,208.48,28.1s-8.56-8.56-8.56-8.56-3.59-4.14-4.41-5-3.87-3.59-5.25-4.69S185.57,6,184.74,5.73s-6.63-3-6.63-3S175.63-.89,174,.21s-5.8-.55-8,0c0,0,2.9,14.91,4.56,17.81a29.09,29.09,0,0,1,3.31,12.43V37.9L169.9,49.08l-10.84,12.7a5.92,5.92,0,0,1,0,4.7c-1.11,2.48-.55,5.24-2.21,6.35s-1.66,1.38-3.31,1.66a11.76,11.76,0,0,1-3.32,0s-2.48,5-2.48,5.79-6.35,3.32-6.35,3.32-8.56,9.39-9.11,10.49a22.51,22.51,0,0,0-1.66,5.8V106s-.83,2.49-1.93,2.49-4.42,1.93-5,2.76-6.35,8.83-7.18,9.39-3,4.11-3,4.11-5.18,5-9.49,5.27-4.87-.55-6.52,0a16.9,16.9,0,0,0-3.59,1.94H91.41s-2.21,8.28,0,10.21-.31,6.91-1,7.73a7,7,0,0,0-1.5,3.87c0,1.38,1.65,8.28,4.69,11.87s2.76,5.25,5.8,5.53.61-.28,4.59,0a22.43,22.43,0,0,1,7,1.65s6.07,2.49,6.62,3.32,0,3.59-1.65,5.79-10.22,10.77-10.22,10.77-5.25,9.39-4.14,10.77,2.48,5,.83,6.35-5.25,4.42-5.25,4.42-9.39,4.14-10.49,4.42-13.63,12.7-13.63,12.7v2.76s-7.91,2.76-7.91,3.59-2.48,4.42-1.66,8.28-.82,7.18,2.76,11.32a50.58,50.58,0,0,1,4.42,5.53l.55,4.41s-4.41,3.59-6.07,5a7.14,7.14,0,0,1-3.31,1.66c-.83.28-6.91,3-6.91,3s-15.73,14.35-15.73,15.18S35.91,306.7,29,299s-13-12.43-13.53-13.26-7.18-6.35-7.18-6.35a54.08,54.08,0,0,1-4.42-4.14c-.55-.83-.55-1.93-1.38-1.93s-2.21,6.07-2.48,8,2.76,14.09,3.31,16.85S8,314.43,8,314.43s2.2,9.66,2.48,11.59.55,21.27.55,21.27-2.21,2.48-2.21,4.14.28,6.07.28,7.45.83,9.39.83,9.39-1.93,1.11.83,3,1.1,0,4.14,3.86,4.42,5.25,7.18,7.18a29.5,29.5,0,0,0,5.52,3c1.1.55,2.48,1.1,5.25,2.48s3.31,1.94,6.07,3.32a24.79,24.79,0,0,1,2.76,1.38C45.3,394.5,46.4,397,49.44,397h3s2.21,6.07,3.86,7.73a17.64,17.64,0,0,0,6.36,4.42c2.48.82,1.65-.83,4.41,0a8.84,8.84,0,0,0,4.7.23s4.14,4.74,6.35,6.12a74.48,74.48,0,0,0,7.18,4.14A27.74,27.74,0,0,0,92,421.56c2.49.28,6.63,1.38,7.46,1.38a35.55,35.55,0,0,0,6.35.83c6.63.55,8.56.55,8.56.55h4.42c2.48,0,2.76-.55,5.24,0a29,29,0,0,1,6.08,2.21,28.39,28.39,0,0,0,6.9,1.93c1.38,0,4.69,2.21,8,0s10.49-6.62,13-10.21a70.89,70.89,0,0,0,5-8c.83-1.66,5-9.39,6.08-11s1.1-3.32,1.38-4.7,1.38-4.69,1.38-6.07,2.21-2.76,3.87-5.53a10.15,10.15,0,0,0,1.65-4.69s-3-6.07,1.11-6.35,6.9-.28,8,1.38.83,3.31,2.21,4.69,4.7,1.39,5.53,1.94,3,6.07,14.91,4.69,16-2.21,16-2.21,2.76-.27,5.25-.55,4.41-.55,5.24-.55a17.61,17.61,0,0,1,5.52,1.38c1.66.83,1.94,1.38,3.87,1.38s-.28.55,3.87-.83,7.17-1.38,7.73-2.21a14.11,14.11,0,0,1,3.59-3.31,5.62,5.62,0,0,1,3.59-.28v3l1.93,1.93s17.12-6.9,21.54-9.66,6.9-6.35,9.38-7.73,2.76-1.38,3.59-1.94,1.94-2.48,3.87-3.31,1.93-1.93,5-1.1,3.86,1.93,6.35,4.14,1.1,1.93,5,4.42a40.66,40.66,0,0,0,8,3.86,55,55,0,0,0,6.62,1.66c2.21.27,20.44,12.42,26.51,13.25s8.28.28,12.43.83,9.11,0,12.7,1.1,6.9,2.49,12.42,2.49h23.75c5,0,9.66-.28,9.66-.28s5.25.28,8.29-.55-.56-1.38,6.35-2.21,12.7-3,14.63-3.31,3.12,1.1,5.43-1.38,5.06-7.73,6.72-8.84a45.26,45.26,0,0,0,5.24-5l.83-.83A24.46,24.46,0,0,0,477.14,364.41ZM52.48,341.49c-.55-2.76-3.59-6.08-3.59-6.08L46.4,326.3v-7.45c0-5,1.66-5,2.49-7.18s8-13.53,8.56-14.61,5.25-.3,8.56,0,2.48-1.65,5.52-3,9.67-1.94,9.67-1.94c1.57-.16,8.83,4.14,10.49,5s.83,2.76,0,5.25-2.21,3.31-2.49,4.14-9.11,16-9.66,16.84a22.69,22.69,0,0,1-4.7,5,41.94,41.94,0,0,0-5,4.42c-1.93,1.93-3.31,2.21-4.41,3.87s-1.94,3-1.66,4.14S61,344,59.93,345.9s-1.38,2.77-3.59,2.77,0,0-1.93-1.38S53,344.25,52.48,341.49Zm108-46.94c-.83,2.76-2.49,6.35-2.49,7.18s-2.2,14.08-2.76,17.39S149.67,336,149.67,336s-3.31,15.19-3.86,18a28.46,28.46,0,0,1-5,10.15,15.83,15.83,0,0,0-3,6.35c-.55,1.66-1.38,6.07-1.38,6.07l-5.8,3.32c-1.93,1.1-2.76,5-3.59,6.07s-1.93,2.49-8.56,6.08-3.31,1.65-5.52,1.65-3,0-4.42.56-5,1.65-8.56,3-2.76-.49-6.08-.49-8.55,1.1-14.35,0-5.25,0-7.18,0H65.73c-2.76,0-3.86-.83-6.62-1.38s-4.15-3-4.42-5.52,4.42-10.77,4.14-14.36,3-1.66,4.14-1.38,2.49,2.76,3.87,4.42,4.69,2.48,8.56,4.14,10.49-.55,13.8-1.93,2.76-3.87,3.44-6.35,6.5-9.94,7-11.6,7.46-8.56,8.29-9.94,8-11.32,8-13,6.62-16,7.73-19.47,9.38-10.07,9.38-10.07a27.59,27.59,0,0,0,3-5c.55-1.66,0-2.76.83-4.7s3.31-4.42,4.69-5.8,2.21-6.35,2.21-6.35-2.48.56-3,1.38a26.64,26.64,0,0,1-4.15,4.42c-1.93,1.66-3,.28-2.2-2.21s1.1-3.59,1.1-3.59l-3,3.59a31.17,31.17,0,0,1-4.42,4.42c-1.65,1.11-3.86.28-5.52-1.66s0-2.2,1.66-5.79,1.28-5,1.28-5-1.83-5.8-2.39-7.18-3.86-5.53-3.86-5.53a38.48,38.48,0,0,1-4.42-10.21c-1.1-5,4.14-4.7,7.18-6.63s8-6.63,20.16-8.28,14.08,3.31,16.84,5.24,0,15.19-.28,18.78-9.38,0-9.38,0,8.55,3.87,11,5.25.83,6.62,0,9.66S161.27,291.79,160.44,294.55Zm104.09,32c-1.1,4.14-12.14,12.7-13,14.08s0,2.76,0,5.52-1.38,3.59-2.76,4.42-5.25,1.1-8.85,1.38-6.06.55-8,.55-2.21.83-5.8,2.21-6.9,3-6.9,3a21.19,21.19,0,0,1-3.86,3.38c-2.76,2-5.8-.07-6.91-.07a5.23,5.23,0,0,1-2.72-.27c-1.89-.56-2.8.82-5.56,0a3.15,3.15,0,0,1-2.25-3.59s-1.34-2.49-1.89-3.87-3.87-3.31-6.35-4.69-1.11-7.74-1.94-9.39,0-20.43,0-22.37,1.66-11.59,2.77-13.25,1.1-1.66,3-4.69a60.49,60.49,0,0,1,5-6.91c.83-.83,9.94-4.41,9.94-4.41H218.7c3,0,6.9,3.86,7.45,4.41a57.88,57.88,0,0,0,9.94,4.7c3.32,1.1,5.8,1.1,7.18,1.65s6.35,4.42,8.56,6.91,8.84,7.73,10.5,10.76S265.64,322.44,264.53,326.58Z"/></g></g></svg>