<svg xmlns="http://www.w3.org/2000/svg" viewBox="0 0 424.36 493.2"><defs><style>.cls-1{fill:#fff;}</style></defs><g id="Layer_2" data-name="Layer 2"><g id="Layer_1-2" data-name="Layer 1"><path class="cls-1" d="M423,320.55c-2.82-4-8.06-16.12-9.67-18.14s-15.72-5.64-19.75-6.45a37,37,0,0,0-13.3-.4c-4,.81-10.07,2-11.28,2s-12.09-.81-12.09-.81-2.42-2.42-1.21-4,6-11.29,6-11.29l5.64.41,15.32-25.39S396,244.78,396,241.56s1.61-10.08,1.61-10.08l2.42-5.24a11.64,11.64,0,0,0,3.22-4.43c.81-2.42-.8-7.66-1.61-8.87s-6.45-3.63-8.46-4.83-4-2-5.64-3.63a72.17,72.17,0,0,0-7.26-5.24s-5.24-2.42-6-3.63-2.83-4-4-4.83,1.2-6.85,1.2-6.85,4.44,2.82,4.44-.81V154.91s2.42-6.45,5.24-9.27,5.24-8.06,5.24-8.06,4-8.46,6-10.48,6.05-8.46,7.26-9.67,4-3.63,4-3.63-1.21-1.21,4-4,6.44-3.22,6-8.06-.8-19.34-8.46-31a68.6,68.6,0,0,0-17.73-18.54c-2-1.61-6.05-3.63-7.66-3.63s-7.26-1.21-11.29-1.21H356.11c-3.22,0-7.25,0-7.66,1.21s-2.42,2.42-2.82,3.63-10.88,5.64-10.88,5.64L330.32,61l-5.24,2.41S315,65,313.79,65s1.21-1.21-5.24,3.22-9.67,4.43-11.68,7.25l-2,2.83-7.25,2.82S276.72,83.57,273.9,86,265,91.23,259,92.84s-11.68,4.84-16.92,7.66-6.85,2.82-8.47,3.23-9.27,0-10.47-.41-4.84,1.21-4-3.22.8-5.64,2-8.47,3.63-6,4.84-8.86,1.21-10.88,1.21-10.88-2-6-2-8.06-4-5.65-4-5.65l.81-10.88s21.36-1.61,29-2,29,.8,35.47,1.61,18.13.4,23.78,0,13.3-4.84,13.7-6,4-4.83,4-4.83-3.21-14.11-3.21-16.12S317.54,8.09,313.9,6.23c0,0-11.5-6.23-15.81-6.23H279.4S254,10.54,252.56,12s-11.5,5.27-16.78,8.15,4.32,2.39,4.32,2.39-5.56,1.44-5.9,2.88-2.25,1-5.12,1.92-6.23,1.91-7.67,2.87l-1.44,1A23.41,23.41,0,0,1,215.66,34c-3.36,1.91-7.67,4.79-7.67,4.79a30.78,30.78,0,0,0-5.75,3.35c-3.36,2.4-1.88,2.4-5.25,2.4s-5.3,0-5.77,2.39.47,21.57,0,23.49-2.4,7.19-3.84,11-8.15,24.92-9.1,28.75,2.39,7.19,0,8.63-6.71,12-6.71,12-3.84,11.5-3.84,13.42-1.91,5.75-3.83,9.11-1.92,5.75-3.36,9.58-2.39,9.11-3.35,11-1,0-2.4,6.71-8.62,12.94-8.62,12.94,1,6.23,0,8.15-1.44,18.21-7.67,25.88-12,20.75-12,20.75l-4.31-4.94v8.15s-6.71,11.5-8.15,13.9,1-4.8-5.75,10.06S98.73,299,98.73,299s-2.88,4.32-4.32,5.28S75.72,327.8,75.72,327.8s-6.23,6.71-6.23,9.1v18.22h-12s-3.36,1.91-3.36,3.35,1.92,3.83,1.92,3.83l1.44,5.75a50.81,50.81,0,0,0-3.36,4.8c-1.43,2.39,0,5.75,0,5.75h-12l-9.1,9.1L22,397.77l-7.18,4.79s-9.11,4.79-12,4.79H0v18.21s6.71.48,7.67,4.32A24.35,24.35,0,0,0,11,437.06l8.15,3.84,4.31-4.31a20.18,20.18,0,0,1,2.4-1c1.44-.48,3.35,1.43,8.63-.48s8.14-2.4,12.93-4.79a45.9,45.9,0,0,0,8.63-5.76l4.79-7.66,2.4-3.36,5.27-1s5.43-8.14,9.9-9.58,8.31-4.79,11.19-7.67a43.83,43.83,0,0,0,5.75-8.15L105.91,370s12.46-20.13,13.9-22.52,8.63-16.3,8.63-16.3l12.94-23.48L157,284.19l5.51-17.25,4.31-7.67,10.55-23,9.58-24.44,9-19.17s7.73-12.94,7.73-16.29S207,161,209,156.71s3.83-15.81,3.83-15.81.48-6.23,5.27-2.88,5.27,1.92,7.67,5.27,6.44,3.36,5.86,6.23.11,9.59,0,11,0,15.82,0,15.82a6.9,6.9,0,0,0,0,7.19c2.29,3.83,1.81,4.79,3.25,5.75l1.43,1s1.92,7.19,1.92,8.62-1.44,4.32-3.35,5.75-1.44,1-5.28,2.4-7.66,2.4-8.14,3.83-5.27,2.88-5.27,2.88-8.15,7.19-3.36,6.71,22.05,0,22.05,0h9.52s6.29-.48,8.69,0,7.67,2.87,9.58,2.87h10.07c2.39,0,10.54-2.87,10.54-2.87l3.83-4.79s10.55-2.4,12.94-2.4,12-2.88,12-2.88,2.4-2.87,4.32-5.27,3.35-4.79,5.27-4.79,4.31-1,9.1-1H338s4.38,1,3.54,2.4,1.8,4.31,0,7.19-.48,5.75-3.54,6.23-5.45,4.79-6.89,5.27a28.61,28.61,0,0,0-6.71,2.4c-3.83,1.91-16.77,5.27-16.77,5.27l-14.86,8.62L276,248.39s-7.67,5.13-11,5.61-15.82,4.79-15.82,4.79l-4.85,2.87h-6.17s-3.83-5.27,0-7.19,8.52-10.54,8.52-10.54l-2.35-2.69s-1.5,3.26-3.13,3.46-4.48,2.29-4.48,3.69a6.46,6.46,0,0,1-1.63,4.46c-1.22,1.22-3.05,1.83-4.68,3.66s-3.06,3.67-3.87,4.48-5.09,2-6.72,3.87-3.05,3.05-4.48,3.05-5.29.82-6.31,1.63-4.68,1-5.29,4.28a67.29,67.29,0,0,0-1.84,14.05c0,6.1-1.62,12,1.23,13.84a25.49,25.49,0,0,1,5.29,4.28c2.65,2.44,5.09,5.49,6.92,7.12s-.4,4.89,4.28,3.26,4.68-1.63,6.51-3.06,2.45-3.25,3.26-4.47.06-2.85,2.17-5.09,3.12-3.67,4.75-4.28a40.27,40.27,0,0,0,7.13-4.07c1.22-1,1.8-3.87,3.24-4.89a18.66,18.66,0,0,1,3.68-1.83l5.91-.81,2.24-8.35s-1.63-2.45,2-3.46,1-1.63,7.13-1.63,9.16,0,9.77.2,1,.61,4.48,2.24,3.26.82,5.9,2.85,16.28,9.39,19.51,13.83S313,302.41,314.2,304a21.44,21.44,0,0,1,2.82,4.84c.4,1.21-1.61,6-1.61,6L303.72,321l-4.84,3.22s-11.69.81-13.3,3.63-2.82,4.84-2.82,4.84l-4.43,1.61-4.84-.4a29.14,29.14,0,0,0-5.24.4c-1.21.4-7.65,3.22-7.65,3.22l-2.42,3.23-7.66.4H238.43S230.77,350.77,203,352l5.24,6.45s.81,2.42,4.44,2.42,0-2,5.64.4,6.45,2.82,8.06,3.63S230,367.7,234,367.7h7.65l5-.81s.19.81,5,.41a27,27,0,0,0,7.66-1.62l3.62-3.22s7.66-.81,9.27-.81,3.23-1.2,8.06-1.2,9.27-.81,10.48-.81a20.22,20.22,0,0,0,16.93-8.46h6.45a3.66,3.66,0,0,1,3.62,3.22l.81,22.57-.4,5.24s-5.24-3.63-5.24-2.42-7.66,27.81-8.06,29.82-4,8.06-5.65,10.48-8.06,15.32-12.09,18.94-14.5,8.06-14.5,8.06-8.06,3.23-8.47,4.44-2,1.61-3.22,2.41-29.42,4.84-31.44,4.44,1.21,3.22,2,5.24,4.43,5.24,7.66,7.65a51.62,51.62,0,0,1,7.46,7.26c1.4,1.61,4.63-.81,6.24,0s5.24,1.21,7.25,3.22-.8,1.21,2,2,.8,2.42,6,2.82a47,47,0,0,0,8.47,0s5.24-1.25,6.44.18a16.25,16.25,0,0,0,5.65,3.85c2,.81,13.3,3.22,18.13,2.42s8.47-3.23,12.5-3.23,6,.41,12.89,0,10.88-8.86,12.09-9.67,0,.81,4-7.25,1.75-8.47,3.29-10.48S355.3,458,355.3,458s2.42-2.83,3.23-14.11a153.44,153.44,0,0,0,0-21s3.22-24.58,3.63-25.79-.41-17.73,0-19.34.11-14.51.11-14.51,1.09-12.09,3.92-14.91,7.65-2.42,11.68-3.23,9.68-.4,12.5-.4,7.65,1.21,9.27,0,6.44-2.42,7.65-2.42,1.62,1.61,3.23,2.82,5.24,3.23,6.45,3.23h4s1.61-6.86,2-8.07S425.83,324.58,423,320.55Zm-84.9-67.71c-2.29,2-.54,7.66-.07,10.48s-1.68,2-2.89,2.82a9.75,9.75,0,0,0-4,5.24c-1.21,3.22,0,0-.8,4.84s-5.65,0-7.66,0-4.84-2.83-6.45-4-10.07-2.79-10.07-2.79a24.84,24.84,0,0,0-6.59,0c-4.58.41-11.55-3.22-11.55-3.22s-1.61-2.82,0-8.46c.61-2.12,2.68-3.16,5-3.63h-.2l10.48-2.82,13.29-2.84-5.23-1.79s9.26-2.63,12.89-5.85,13.77,0,13.77,0l3.54,3.63S340.39,250.83,338.11,252.84ZM338,122.67c-6.38,2-7.32,2.41-7.32,2.41h-6.85a93.52,93.52,0,0,0-13.3.81c-7.66.81-6.05,2-8.46,2a51.78,51.78,0,0,0-12.85,2.41c-5.2,1.62-7.3,4.44-7.3,4.44L274.3,138s4.43,2,6.45,3.23,8.06,1.2,14.1,2.82,11.69,4.43,14.91,5.24,11.29,0,15.72,0,3.23,5.64,2.4,10.47a7.13,7.13,0,0,1-5.62,5.65,30,30,0,0,1-6.45,8.86c-4.84,4.84-6.05,2.82-12.9,4a21.93,21.93,0,0,0-11.28,6.05l-2,8.06a41.8,41.8,0,0,1-2-6.45c-.41-2.42-1.61.81-4.84,0s-6.85-4-6.85-4-2.82-4-4.84-7.66-4.43-14.1-6-18.94-9.67-16.52-12.71-20.15-2.61-4.43-2.2-10.48,4.4-6.85,4.4-6.85,9.7-3.22,12.12-4.84a96,96,0,0,1,8.46-5.23c2.42-1.21,6.45-2.42,10.08-4s10.48-4,10.48-4l10.07-5.64,8.06-1.61c2-.4,3.23,0,16.12.4s11.29,3.63,14.11,4,5.24,6,5.24,13.3S344.42,120.65,338,122.67Z"/></g></g></svg>