<svg xmlns="http://www.w3.org/2000/svg" viewBox="0 0 455.92 436.65"><defs><style>.cls-1{fill:#fff;}</style></defs><g id="Layer_2" data-name="Layer 2"><g id="Layer_1-2" data-name="Layer 1"><path class="cls-1" d="M162.27,68.48l1.54,2.22h3.75a18.47,18.47,0,0,0,.85,3.24A52.48,52.48,0,0,0,173,77.35l2.55,3.58a10,10,0,0,0,3.24,0c.86-.34,1.88-.38,2.22.15A51.33,51.33,0,0,0,185,84.51s.85.68,1.88,1.37,2.39.68,2.9,1.36a9,9,0,0,0,2.55,1.54s.35.68,2.05.68h2.56s1.19-.51,1.87,0a15.92,15.92,0,0,0,3.76,1,14.94,14.94,0,0,1,1.7.85c.51.35,1.37,1,1.37,1s.85-1.54,2.21-1.54,3.24-.68,3.24-1.36-.85-.68-1.19-2,0-2.56-.85-5.11S207.29,78,207,77.18s-.17-1.19-.51-2.39-1-3.75-1-3.75l-1.37-2.22a4.46,4.46,0,0,0-1-1.36c-.51-.34-1.37-1.88-2.05-1.19S199.45,70,199.45,70h-1.2s-.34-2.39-.85-2.56a13.85,13.85,0,0,0-1.53-.34l-2.22-.68-7.33-1-3.24-1.36a4.23,4.23,0,0,1-1.71,0,15,15,0,0,0-2.9,0s-.17,1-.85,1-2.39.17-2.39.17,0-2-1-2-5.63.85-5.63.85.85,2.39.51,2.9a11.09,11.09,0,0,1-1.7,1.53L164,67.8l-.86-3.75h-6.48l3.24,2.39Z"/><path class="cls-1" d="M255.72,240a37.54,37.54,0,0,0,6.31,1s.17-18.42,0-18.93a30.4,30.4,0,0,0-2.22-9.72c-2.21-5.29-6.14-12.45-6.65-16s-4.26-14.33-4.77-19.1-.85-16.88-.85-16.88.68-7-.69-7.68-1.87-3.07-3.41-3.24l-1.53-.17s-2,.86-2,1.71v1.87l-2.39,1.54c-.51.34-1.7,1.36-1.7,2a14.37,14.37,0,0,0,0,2.73c.17,1.2.51,2.56.51,3.07s.34,2.22.34,3.07-2.9,6.48-3.07,7.16-8.87,16-9.21,18.25S209,212.92,208.48,215.31s-11.59,14.15-11.59,14.15-6.14,6.31-6.48,7-6.48,7-6.48,7-3.24,4.78-4.43,4.61a6,6,0,0,1-2.05-.68s1.7-15.35,1.7-17.4,2.39-10.74,5.29-13.47,15-16.88,16.54-20.8,2.56-5.8,1.88-6.48-2.05-2.73-3.58-3.07a31.48,31.48,0,0,1-3.93-1c-.85-.34-5.45-1.53-5.45-1.53s-.86,0-.51-3.58,9.55-23,9.89-23.71.34-10.06.34-10.06l-5.63.34-3.24,2.9-2.56-1.87-2.9-1.37s-4.94-.17-5.79.17-1.88,1.54-2.39,1.54-1.37.68-2.73-.17a8.19,8.19,0,0,0-3.92-1.54c-1.2,0-2.9-1.53-2.9-1.53H166c0,.85-.85,2.73,0,4.94a9.45,9.45,0,0,0,1.71,3.07,17.72,17.72,0,0,0,0,3.07c.17.86-.89,2.9-1,3.24s-20.28,16.89-20.28,16.89-2.38.51-3.41.85a7.74,7.74,0,0,1-2.9,0l2.73,2L141,180.35a7.41,7.41,0,0,0-3.07,0,34.47,34.47,0,0,0-5.8,2.22,38.18,38.18,0,0,1-3.75,2.38c-.86.34-3.92,0-3.92,0l-1.2,3.24s-.85.86-1.36.86h-4.1a.73.73,0,0,0-1.19,0c-.68.68-.68,2-1.19,2.38s-1.88,0-1.88,0a2.44,2.44,0,0,0-1.53.15c-.51.36-7.51,3.77-7.85,4.29s-5.28,2.55-5.8,2.72-3.75,1.37-4.26,1.71a5.9,5.9,0,0,0-2.9,2.22,9.08,9.08,0,0,1-1.87,2.38l-5.46-1a101.36,101.36,0,0,1-38.54,17.56L40,223l-6.3,1-4.27,2.56s-2.39-2.22-3.07,0-3.92,2.22-6.31,2.05a19.37,19.37,0,0,1-5.79-1c-.94-.46-9.88-2.66-14.26-6.56l9.48,9.63s3.58,1,3.58,2a5.46,5.46,0,0,0,.51,3.24c.69,1,1.88,1.19,3.75,2.22s3.07,1.36,4.44,2.73,5.8,3.58,6.48,4.6a10.29,10.29,0,0,0,3.92,2.73c.51,0,3.41.51,5,.85s3.75.34,4.43.85,2.9-1,3.41,0,1,1.71,2,1.71h1.87l2.22-1.37a52.66,52.66,0,0,0,16-3.07c8.52-3.06,25.24-13.13,29.33-16.2s8.7-6.48,8.7-6.48l3.41-1.87s-.86-3.68,1.19-4.06,1.71.31,4.6-.72,10.07-8.69,10.07-8.69l14-12.62s5.63-4.09,6-4.61a20.49,20.49,0,0,1,2.21-2l1.37-.17.34,10.74s-.51,2.9-1.19,3.58-6.14,9.21-7.17,10.23-8.18,9.21-8.18,9.21-2.9,5.8-3.58,6.82-12.62,21.32-12.62,21.32l-12.79,20.46s-8.87,13.47-8.87,14.16-9,14.32-9,14.32-4.26,2.22-4.77,2.56-4.61,3.24-5.12,3.58-3.58,2-3.58,2-2.56.35-3.58,2.05-2.73.17-2.22,4.78,4.1,17.73,4.1,17.73l3.58,11.43s.34,6.48,1.19,8.35,2.39,3.24,2.9,4.61a13.73,13.73,0,0,0,2.05,3.92c.68.68,1.36,2.39,2.9,2.73s1.19-.17,2.72.85,2.39,1.19,2.9,1.7.86.35,2,1.2.68,2.21,2.73,1.19.34,0,2-1,3.93-2,4.27-3.07a8.91,8.91,0,0,1,2.38-3.41c1-.85,4.61-3.75,5.12-4.43s2.9-3.76,4.26-4.27,7.85-6.14,7.85-6.14l7.16-7.5,3.41-2.39a9.29,9.29,0,0,1,.85-2.73c.51-.68,7.51-8.86,7.51-8.86s2.72.34,2.89,1a13.09,13.09,0,0,1,.18,2.56c0,.51-2.73,4.6-3.07,8.18a59.87,59.87,0,0,1-.86,7c-.34,1.37-.68,2.56-1.7,5.8a38.55,38.55,0,0,0-1.37,5.63l-1.36,4.6-.85,2.22-2.9,2.39,3.58,1.53s1.36,7.34,2.22,7.85,5.28,7.33,6.13,8.86,2.73,4.44,2.9,5.12-.17,3.24,1.71,4.09,1.7,0,3.24,2.05,1.87,2.56,2.9,3.92a14.5,14.5,0,0,1,2.21,4.26c.69,1.88.52,2.9.86,4.61s1.53,2.73,3.07,4.09,8.35,5.63,9.38,6.82,4.94,4.78,4.94,4.78a58.22,58.22,0,0,0,1.71-7c.34-2.56,1-6.31,1-6.31s-1-1.2,0-2.05,1-27.11,1-27.63V365c0-1.2-1-6.65-1.19-7.85s-.34-5.62-.85-6-.69-28.82-.69-28.82l.52-29.85s2.55-9,5.28-12.61S186.83,268,186.83,268s5.45-9.21,6-9.89,5.11-9.72,5.11-9.72a20.37,20.37,0,0,1,2.22-3.92c.85-.86,3.24-2.56,4.09-3.93s5.46-5.79,8-10.57a61.92,61.92,0,0,0,4.09-9.55c.17-.51,1.87-5.28,1.87-5.28a35,35,0,0,1,2.56-5.29c.86-1,1.37-2.73,2.73-2.73s2.39-.51,3.92,2.22,4.44,11.42,8,15.17,5.8,5.63,6.82,6.83,2.39,3.58,3.75,4.77,1.54.51,4.43,1.37S253.67,239.35,255.72,240Zm-107.6,38.2c-.85,1-1.54,2.39-2.56,2.73s-7.16,1.53-7.16,1.53l5.21-7,.93-2h4.26S149,277.21,148.12,278.23Z"/><path class="cls-1" d="M455.9,136.23a26.08,26.08,0,0,0-1.25-6.88c-.21-.83-2.5-8.34-2.92-9a23.08,23.08,0,0,0-3.13-2.51,29.66,29.66,0,0,1,.21,5.42c-.21,2.3-1.25,3.55-1.87,3.55s-1.67.21-1.67-1.88.21-6.46-.21-7.3-2.92-3.75-4.59-4-8.75-3.75-14.59-3.33-14.81-.42-16.06-.42a100.73,100.73,0,0,0-11.05,1.46,35.22,35.22,0,0,0-7.71,2.92c-1.67.83-3.55.42-6.05,1a37.05,37.05,0,0,1-6.46,1.25H377.3s5.42-37.53,7.09-42.95S385,55.54,387.1,53s2.5-15,2.71-16.89.21-7.09.41-8.34,4-4,2.3-11.26S389.6,4.46,389.6,4.46s-3.13.63-3.75,0-2.09,0-2.09,0L382.3,1.33A9.09,9.09,0,0,0,379.8.08c-.63,0-7.09.63-9,0s-7.08,2.5-7.08,2.5l-3.34,1a17.61,17.61,0,0,0-3.75-1.46c-.84,0-5.63.21-6.47.21s-5-.42-5.42,4.58a50.26,50.26,0,0,0,0,11.26,44.6,44.6,0,0,1,0,7.72s-4.38,11.67-5.63,14.17S325,68.05,325,68.05l-4.38,9-2.3.83S316,77.23,316,76.18s-.63-2.08-.21-2.92,2.09-3.33,2.09-3.33.41-6.67.41-9.59a70.85,70.85,0,0,0-1-8.76s.63-5,.83-6a20.83,20.83,0,0,1,2.72-5.21c1.25-1.87,1.87-3.75,1.66-5a6.81,6.81,0,0,0-3.12-4.17c-1.46-.63-2.3-1.46-4-1.88a28.93,28.93,0,0,0-6-.41c-1.88,0-4.17-1.26-4.38-.21a4.22,4.22,0,0,1-1,1.87L301,29.9a13.08,13.08,0,0,1-3.55,1.25c-1,0-7.62,1.07-7.62,1.07-.79.53-6.11,6.91-6.11,6.91h-2.39s.53,5,0,6.64a7.92,7.92,0,0,0,0,3.72s2.66-.53,2.66,0,1.47,6.91,1.47,6.91,4.11,1.33,4.37,0,1.6-.94,1.86.59,0,16.69,0,16.69L293,75V85.63l-2.65,31.63-1.07,29.23.27,9s-13,6.65-14.62,7.45-14.88,0-14.88,0,12,4.78,14.62,4.78a47,47,0,0,0,7.44-1.06s0-.8,2.65-1.07l2.66-.26-1.06,8.23-7.44,11.7s-4.25,3.45-4,6.11,5.58,4.52,5.05,9.83-10.9,1.3-16.11-1.82l8.75,8.13a39.53,39.53,0,0,1,5,0,53.6,53.6,0,0,1,7.29,5.42c.63.83,3.76,2.92,4.17,4.58s3.13,5.43,1.88,9.39-5.63,6.88-5.63,6.88l-6.25,1L272,241.73s-1.67-.83-.84,2.08.63,8.76.63,8.76l-.63,4.17a10,10,0,0,1-1.67,2.09c-.62.41-1,6.25-.62,8.55s2.08,5.9,2.5,6.08,1-.8,2.71,0,2.09.86,3.34,0,12.72-4.83,13.34-5.67,12.09-6,13.55-6.46,12.72-6.26,13.35-6.26,2.92-1,2.08,1.05-23.14,27.65-23.14,27.65L285.14,292s-7.09,5.84-8.55,6.88-1.87,1.25-3.12,2.29a11.34,11.34,0,0,1-3.34,1.67H254.91s-3.54,2.08-3.34,5.21,0,10,0,10l-1,8.34s-3.33,4-3.33,6.46,2.08,5.22,2.5,6.05a20.39,20.39,0,0,1,1.25,4.38c0,.62-1.25,2.92,0,4s5.21,2.29,7.5,0,15.43-9.59,16.68-9.8,12.93-7.09,13.56-7.09,11.67-7.92,12.51-7.92,3.33.83,8.75-3.13,16.47-9.38,20-12.09,3.75-2.3,6.46-3.76,2.3-2.08,5-3.75,6.88-3.54,7.71-3.54,3.34-.21,3.34-.21,1,1-2.51,5-9.59,10.22-13.34,12.3a41.87,41.87,0,0,1-9.17,3.34,3.58,3.58,0,0,0-2.5,3.13c-.21,2.5-2.51,14.59-2.92,15.63s-1.46,7.93-2.71,8.76a4.54,4.54,0,0,0-1.88,4.42c.21,2.05.21,7.88,3.34,10.59s4.58,3.34,5.83,3.13,8.13,0,8.13,0l-17.09,18.31s-8.55,5-9,5.63-4.17,2.92-5.63,6a27.56,27.56,0,0,0-2.29,9.39c0,1.87-1.53,10.42-.87,11.26s0,11.88,0,11.88,2.12,4.8,4.21,6.88,3.75,4,5.83,4.17a42.78,42.78,0,0,0,5.42,0s83.4-1.25,85.9-1.25,4.59,1.64,7.93,1.34,6.67.51,7.5,0,1.88,1.69,4.17.18,3.34-1.94,4-2.35,2.09,0,4.8-.84,3.75-1,3.75-1-3.75-3.34-4.17-6.26-1.25-8.54-1.25-8.54-.62-4.59-1.25-5,.84-1-3.54-3.13a59.63,59.63,0,0,1-6.88-3.75s-2.92-1.46-4.38-1.46-31.48-.42-32.11-.21-12.51,1.25-12.51,1.25-6.88.84-8.76.42-9.38-.42-10.42-.62-4.8,0-1.88-2.51,20-16.26,20.43-16.88,10.85-11.06,10.85-11.06,4.79-5.62,6.46-6.46a31.7,31.7,0,0,0,5.63-4.38c1.88-1.66,12.51-14.8,12.51-15.63s1.46-7.72,1-9.8a18.4,18.4,0,0,0-3.54-6.67,19.68,19.68,0,0,0-8.13-3.76c-3.76-.83-4.8-.41-6.05-1.46s-2.09-2.92-4.17-4.17-3.34-1.67-3.55-2.5.63-2.08,2.09-3.13,27.1-23.35,27.52-24.18,10.84-11.68,11.68-12.1,5.21-5.42,5.83-6.46,1.26-7.92-.2-11.26a13.09,13.09,0,0,0-9.39-7.5c-4.79-1-10-2.09-11.05-2.3s-7.29-.2-7.29-.2h-6.68c-1.25,0-7.92-1.26-7.92-1.26L374,255.07a10,10,0,0,0-2.29,3.55c-.42,1.67.42,2.92.42,3.75s1,2.5.41,3.13S352.7,272,352.7,272s-14.18,6.88-14.81,7.09-5.21,1.88-5.21,1.88l-3.34.62s7.72-5.84,10-7.09,9-7.71,11.47-9.38a135.33,135.33,0,0,0,11.67-9.59,36.73,36.73,0,0,1,5-4.59c2.5-1.87,12.09-9.59,13.13-10.84s2.3-3.33,3.76-3.54.41-.21,2.92-.63,8.54-5.84,8.54-11.26-1.87-8.34-2.92-9.38-3.33-3.13-5-3.13-3.34,2.09-5,2.51-2.3-.84-3.76-1.88a8.49,8.49,0,0,0-3.54-1.25L368.75,210h-4.17c-2.5,0-5,.21-5,.21L357.7,208s5.63-3.75,7.5-3.75,10.22-2.71,13.14-2.71,4.8,1,10-.63,7.71-6.25,9.38-6.46,12.09-4.38,15.43-6,6-5.84,6.67-6.05,2.29.62,5-1,3.34-2.09,3.76-2.71,3.75-5,3.75-5,8.34-5.42,10-7.3,1.67-2.29,2.92-3.75a45.22,45.22,0,0,0,4.79-8.55c.21-1,3.76-8.27,4.17-9.24A19.83,19.83,0,0,0,455.9,136.23ZM331.43,170.42a21.45,21.45,0,0,1-3.34-1l-1.67,2.5s-3.54,4.38-4.17,4.8a49.58,49.58,0,0,0-3.35,4,26.52,26.52,0,0,1-5,3.55s-2.29,2.91-5.62,2.5,0-3.76,0-5,4.79-25,4.79-26.68,2.29-2.51,2.92-2.71,8.76-3.43,8.76-3.43l19.18-8.67-1,2.71c-1,2.71-.42,4.8-1,6s-.62,19.69-.62,19.69-2.5.83-6.26,1.67S332.05,170.42,331.43,170.42Zm11.76,52.31a11.83,11.83,0,0,1-3.22,1.7s-1.7-.17-1.7-1.19V220.7s1.19-2,2-2.12a18.53,18.53,0,0,1,2.2,0h1.43S344,221.89,343.19,222.73ZM357.7,46.37V56s-1.46,15.43-1.46,16.47-5,30.65-5.63,37.11-2.29,16.27-10,22.73-21.68,6.67-21.68,6.67c-.63-17.1,11.67-58.38,16.47-74.43s20.85-32.32,20.85-32.32h1.46Zm47.54,80.06s-1.05,6.67-1.67,8.55-7.72,14.59-8.13,15.52-18.14,22.22-19.18,24.09-3.55,0-4.49,0-1.77-1.25-2.6-1.87a9.82,9.82,0,0,0-2.92-1.67c-1.25-.42-4.59,0-4.59,0a43.08,43.08,0,0,1,.83-5.21c.42-1.25,0-6.05,0-6.05l2.92-12.3s1.88-9,5.84-15.85a11.25,11.25,0,0,1,10.63-6s6.88-1.25,9-1.67a57.15,57.15,0,0,0,6.67-1.46c.84-.42,7.72,0,7.72,0Z"/></g></g></svg>