<svg xmlns="http://www.w3.org/2000/svg" xmlns:xlink="http://www.w3.org/1999/xlink" viewBox="0 0 229.81 124.28"><defs><style>.cls-1{fill:#cccbcb;}.cls-2{fill:url(#linear-gradient);}.cls-3{fill:#fcc31e;}.cls-4{fill:url(#linear-gradient-2);}.cls-5{fill:url(#linear-gradient-3);}.cls-6{fill:url(#linear-gradient-4);}.cls-7{fill:url(#linear-gradient-5);}.cls-8{fill:url(#linear-gradient-6);}.cls-9{fill:url(#linear-gradient-7);}.cls-10{fill:url(#linear-gradient-8);}.cls-11{fill:url(#linear-gradient-9);}.cls-12{fill:url(#linear-gradient-10);}.cls-13{fill:url(#linear-gradient-11);}.cls-14{fill:url(#linear-gradient-12);}.cls-15{fill:url(#linear-gradient-13);}.cls-16{fill:#6e6467;}</style><linearGradient id="linear-gradient" x1="11475.2" y1="-10654.77" x2="11471.71" y2="-10658.17" gradientTransform="matrix(-0.54, -0.57, -0.63, 0.59, -547.01, 12917.26)" gradientUnits="userSpaceOnUse"><stop offset="0" stop-color="#fff"/><stop offset="0.12" stop-color="#fff" stop-opacity="0.78"/><stop offset="0.24" stop-color="#fff" stop-opacity="0.57"/><stop offset="0.37" stop-color="#fff" stop-opacity="0.4"/><stop offset="0.5" stop-color="#fff" stop-opacity="0.25"/><stop offset="0.62" stop-color="#fff" stop-opacity="0.14"/><stop offset="0.75" stop-color="#fff" stop-opacity="0.06"/><stop offset="0.88" stop-color="#fff" stop-opacity="0.02"/><stop offset="1" stop-color="#fff" stop-opacity="0"/></linearGradient><linearGradient id="linear-gradient-2" x1="116.15" y1="5.6" x2="109.47" y2="13.68" gradientTransform="matrix(1, 0, 0, 1, 0, 0)" xlink:href="#linear-gradient"/><linearGradient id="linear-gradient-3" x1="85.99" y1="30.81" x2="127.67" y2="83.96" gradientUnits="userSpaceOnUse"><stop offset="0" stop-color="#f072ab"/><stop offset="0.23" stop-color="#f074a5"/><stop offset="0.53" stop-color="#f17895"/><stop offset="0.88" stop-color="#f3807a"/><stop offset="1" stop-color="#f4836e"/></linearGradient><linearGradient id="linear-gradient-4" x1="117.48" y1="6.12" x2="159.16" y2="59.26" xlink:href="#linear-gradient-3"/><linearGradient id="linear-gradient-5" x1="-3147.14" y1="3209.25" x2="-3150.64" y2="3205.85" gradientTransform="matrix(0.63, 0.46, 0.51, -0.7, 498.38, 3770.24)" xlink:href="#linear-gradient"/><linearGradient id="linear-gradient-6" x1="-2484.01" y1="-12241.52" x2="-2487.41" y2="-12244.83" gradientTransform="matrix(-0.63, 0.46, 0.51, 0.7, 4864.67, 9771.1)" xlink:href="#linear-gradient"/><linearGradient id="linear-gradient-7" x1="-335.77" y1="4662.69" x2="-339.17" y2="4659.38" gradientTransform="matrix(0.74, 0.25, 0.27, -0.82, -864.88, 3945.4)" xlink:href="#linear-gradient"/><linearGradient id="linear-gradient-8" x1="10463.18" y1="-11447.23" x2="10459.79" y2="-11450.54" gradientTransform="matrix(-0.6, -0.5, -0.55, 0.67, 59.89, 12911.68)" xlink:href="#linear-gradient"/><linearGradient id="linear-gradient-9" x1="1437.08" y1="68.65" x2="1432.75" y2="64.44" gradientTransform="matrix(-1, 0, 0, 1, 1517.51, 0)" xlink:href="#linear-gradient"/><linearGradient id="linear-gradient-10" x1="68.08" y1="81.88" x2="152.53" y2="86.59" xlink:href="#linear-gradient-3"/><linearGradient id="linear-gradient-11" x1="68.34" y1="79.38" x2="152.8" y2="84.09" xlink:href="#linear-gradient-3"/><linearGradient id="linear-gradient-12" x1="90.77" y1="89.32" x2="91.84" y2="81.55" gradientUnits="userSpaceOnUse"><stop offset="0" stop-color="#fff"/><stop offset="0.16" stop-color="#fff" stop-opacity="0.71"/><stop offset="0.23" stop-color="#fff" stop-opacity="0.6"/><stop offset="0.25" stop-color="#fff" stop-opacity="0.57"/><stop offset="0.37" stop-color="#fff" stop-opacity="0.4"/><stop offset="0.5" stop-color="#fff" stop-opacity="0.25"/><stop offset="0.62" stop-color="#fff" stop-opacity="0.14"/><stop offset="0.75" stop-color="#fff" stop-opacity="0.06"/><stop offset="0.88" stop-color="#fff" stop-opacity="0.02"/><stop offset="1" stop-color="#fff" stop-opacity="0"/></linearGradient><linearGradient id="linear-gradient-13" x1="135.67" y1="89.32" x2="136.75" y2="81.55" xlink:href="#linear-gradient-12"/></defs><g id="Layer_2" data-name="Layer 2"><g id="Layer_1-2" data-name="Layer 1"><path class="cls-1" d="M0,101.14s28.66-6.73,112.3-6.73,117.51,6.73,117.51,6.73S114.91,74.9,0,101.14Z"/><path class="cls-2" d="M45.76,29.8a5.63,5.63,0,0,1-1.9-2,4.64,4.64,0,0,1-.52-1.49c-.43-4,2.27-5.44,2.27-5.44s2.51-1.16,2.89-.07c.7,2-.44,7.23.18,9.39C48.86,30.84,47.1,30.63,45.76,29.8Z"/><circle class="cls-3" cx="104.19" cy="22.78" r="16.14" transform="translate(14.41 80.35) rotate(-45)"/><circle class="cls-3" cx="104.19" cy="19.46" r="19.46" transform="translate(-1.77 16.94) rotate(-9.22)"/><path class="cls-4" d="M98,4.39c8.92,3.52,18.62,12.93,21.38,21.38a5.79,5.79,0,0,1-.15,2.44A17.36,17.36,0,0,0,95.27,4.57C96.15,4.46,97.11,4.05,98,4.39Z"/><path class="cls-5" d="M146.69,71.11H84.19a5.76,5.76,0,0,1-5.43-4l-11.43-36H48.23a5.7,5.7,0,1,1,0-11.39H71.5a5.71,5.71,0,0,1,5.43,4l11.42,36h58.34a5.7,5.7,0,1,1,0,11.39Z"/><path class="cls-6" d="M148.36,51.14a5.46,5.46,0,0,1-1.85-.32A5.68,5.68,0,0,1,143,43.59l4.32-14.46H106.83a5.7,5.7,0,0,1,0-11.39h48.45a5.7,5.7,0,0,1,5.39,7.55l-6.93,22A5.69,5.69,0,0,1,148.36,51.14Z"/><path class="cls-7" d="M148.26,60.64a5.56,5.56,0,0,1,2.23,1.6,4.38,4.38,0,0,1,.78,1.36c1.16,3.81-1.22,5.76-1.22,5.76s-2.25,1.61-2.82.6c-1.07-1.87-.91-7.18-1.92-9.19C145,60.2,146.78,60.08,148.26,60.64Z"/><path class="cls-8" d="M152.53,48.67a5.52,5.52,0,0,1-2.13,1.61,4.47,4.47,0,0,1-1.49.32c-3.88-.05-5-2.82-5-2.82s-.83-2.57.27-2.8c2.05-.44,6.93,1.26,9.09.91C153.89,45.79,153.49,47.47,152.53,48.67Z"/><path class="cls-9" d="M155.76,18.4a5.52,5.52,0,0,1,2.54.81,4.61,4.61,0,0,1,1.13,1c2.2,3.19.58,5.7.58,5.7s-1.61,2.16-2.43,1.4c-1.55-1.41-3-6.38-4.52-7.94C152.62,19,154.22,18.32,155.76,18.4Z"/><path class="cls-10" d="M104.65,28.16a5.5,5.5,0,0,1-2.07-1.68,4.39,4.39,0,0,1-.68-1.37c-.89-3.78,1.53-5.53,1.53-5.53s2.29-1.42,2.79-.41c.92,1.88.44,7,1.31,9C107.77,28.78,106.05,28.8,104.65,28.16Z"/><path class="cls-11" d="M76.37,57.78l2.45,7.4c1.25,3.63,3.07,5.45,6.84,5.45h8s-8-9.41-8-9.58S76.37,57.78,76.37,57.78Z"/><path class="cls-12" d="M92.5,89.48a11.88,11.88,0,0,0,11.85-11.07.78.78,0,0,0-.78-.81H81.44a.78.78,0,0,0-.78.81A11.87,11.87,0,0,0,92.5,89.48Z"/><path class="cls-13" d="M137.53,89.48a11.87,11.87,0,0,0,11.84-11.07.78.78,0,0,0-.78-.81H126.46a.78.78,0,0,0-.78.81A11.88,11.88,0,0,0,137.53,89.48Z"/><path class="cls-14" d="M81.51,79.32c.23.35,2.64,9.19,11,9.31,0,0,5.92.24,9.89-6.33Z"/><path class="cls-15" d="M126.41,79.32c.24.35,2.65,9.19,11,9.31,0,0,5.92.24,9.88-6.33Z"/><path class="cls-16" d="M182.47,113.36H170.76a2.27,2.27,0,0,1-2.27-2.27v-2.92a.51.51,0,0,1,.5-.5.5.5,0,0,1,.5.5v2.92a1.27,1.27,0,0,0,1.27,1.27h11.71a1.27,1.27,0,0,0,1.27-1.27V107a1.27,1.27,0,0,0-1.27-1.27H170.76a.5.5,0,0,1,0-1h11.71a2.27,2.27,0,0,1,2.27,2.27v4.12A2.27,2.27,0,0,1,182.47,113.36Z"/><path class="cls-16" d="M173.78,124.28h-4.56a1.66,1.66,0,0,1-1.66-1.66v-6.09a1.66,1.66,0,0,1,1.66-1.66h4.56a1.65,1.65,0,0,1,1.65,1.66v6.09A1.65,1.65,0,0,1,173.78,124.28Zm-4.56-8.41a.66.66,0,0,0-.66.66v6.09a.67.67,0,0,0,.66.66h4.56a.66.66,0,0,0,.65-.66v-6.09a.65.65,0,0,0-.65-.66Z"/><path class="cls-16" d="M184,124.28h-4.55a1.66,1.66,0,0,1-1.66-1.66v-6.09a1.66,1.66,0,0,1,1.66-1.66H184a1.66,1.66,0,0,1,1.66,1.66v6.09A1.66,1.66,0,0,1,184,124.28Zm-4.55-8.41a.65.65,0,0,0-.66.66v6.09a.66.66,0,0,0,.66.66H184a.67.67,0,0,0,.66-.66v-6.09a.66.66,0,0,0-.66-.66Z"/><path class="cls-16" d="M63.16,113.34H58.35a1.47,1.47,0,0,1-1.47-1.46v-5.72a1.47,1.47,0,0,1,1.47-1.46h4.81a1.47,1.47,0,0,1,1.46,1.46v5.72A1.47,1.47,0,0,1,63.16,113.34Zm-4.81-7.64a.47.47,0,0,0-.47.46v5.72a.47.47,0,0,0,.47.46h4.81a.47.47,0,0,0,.46-.46v-5.72a.47.47,0,0,0-.46-.46Z"/><path class="cls-16" d="M55.51,105.7H47.59a2.1,2.1,0,0,1-2.1-2.1v-1.22a.5.5,0,0,1,.5-.5.5.5,0,0,1,.5.5v1.22a1.1,1.1,0,0,0,1.1,1.1h7.92a.5.5,0,1,1,0,1Z"/><path class="cls-16" d="M48.4,113.34H44.65a.5.5,0,0,1,0-1H48.4a1.1,1.1,0,0,0,1.1-1.1v-1.47a1.1,1.1,0,0,0-1.1-1.1H44.65a.5.5,0,0,1-.5-.5.5.5,0,0,1,.5-.5H48.4a2.1,2.1,0,0,1,2.1,2.1v1.47A2.1,2.1,0,0,1,48.4,113.34Z"/><path class="cls-16" d="M61.05,124.28H48.33a2.1,2.1,0,0,1-2.1-2.1V117a2.1,2.1,0,0,1,2.1-2.1H61.05a2.1,2.1,0,0,1,2.1,2.1v5.21A2.1,2.1,0,0,1,61.05,124.28Zm-12.72-8.41a1.1,1.1,0,0,0-1.1,1.1v5.21a1.1,1.1,0,0,0,1.1,1.1H61.05a1.1,1.1,0,0,0,1.1-1.1V117a1.1,1.1,0,0,0-1.1-1.1Z"/><path class="cls-16" d="M57.39,120.25H46.73a.5.5,0,1,1,0-1H57.39a.5.5,0,0,1,0,1Z"/><path class="cls-16" d="M54.84,114a.5.5,0,0,1-.5-.5v-1.89a1.1,1.1,0,0,0-1.1-1.1H52.06a.5.5,0,0,1-.5-.5.5.5,0,0,1,.5-.5h1.18a2.1,2.1,0,0,1,2.1,2.1v1.89A.5.5,0,0,1,54.84,114Z"/><path class="cls-16" d="M54.6,108.57H52.78a2.11,2.11,0,0,1-2.1-2.1V105.2a.5.5,0,0,1,1,0v1.27a1.1,1.1,0,0,0,1.1,1.1H54.6a.5.5,0,0,1,.5.5A.5.5,0,0,1,54.6,108.57Z"/><path class="cls-16" d="M103.19,124.28H87.07a.5.5,0,0,1-.5-.5V105.2a.5.5,0,0,1,.5-.5h16.12a.5.5,0,0,1,0,1H87.57v17.58h15.62a.5.5,0,0,1,0,1Z"/><path class="cls-16" d="M91.69,113.56a.5.5,0,0,1-.41-.78l3.43-5.07a.5.5,0,1,1,.83.56l-3.44,5.07A.49.49,0,0,1,91.69,113.56Z"/><path class="cls-16" d="M103.19,121.6H93.34a.5.5,0,0,1-.5-.5v-10a.5.5,0,0,1,.5-.5.5.5,0,0,1,.5.5v9.51h9.35a.51.51,0,0,1,.5.5A.5.5,0,0,1,103.19,121.6Z"/><path class="cls-16" d="M102.1,111.17H98.45a1.51,1.51,0,0,1-1.51-1.51v-1.78a.5.5,0,0,1,.5-.5.5.5,0,0,1,.5.5v1.78a.51.51,0,0,0,.51.51h3.65a.5.5,0,0,1,.5.5A.5.5,0,0,1,102.1,111.17Z"/><path class="cls-16" d="M102.1,114.64H94.92a.5.5,0,0,1-.5-.5.51.51,0,0,1,.5-.5h7.18a.5.5,0,0,1,.5.5A.5.5,0,0,1,102.1,114.64Z"/><path class="cls-16" d="M102.1,118.12H94.92a.5.5,0,0,1-.5-.5.51.51,0,0,1,.5-.5h7.18a.5.5,0,0,1,.5.5A.5.5,0,0,1,102.1,118.12Z"/><path class="cls-16" d="M98.51,121.36a.51.51,0,0,1-.5-.5v-8.49a.51.51,0,0,1,.5-.5.5.5,0,0,1,.5.5v8.49A.5.5,0,0,1,98.51,121.36Z"/><path class="cls-16" d="M91.17,111a.52.52,0,0,1-.33-.12l-2.72-2.3a.5.5,0,1,1,.64-.76l2.73,2.3a.5.5,0,0,1-.32.88Z"/><path class="cls-16" d="M91.17,115.71a.52.52,0,0,1-.33-.12l-2.72-2.3a.5.5,0,1,1,.64-.76l2.73,2.3a.5.5,0,0,1-.32.88Z"/><path class="cls-16" d="M88.65,121.18a.51.51,0,0,1-.32-.12.49.49,0,0,1-.06-.7l2.3-2.72a.5.5,0,0,1,.77.64L89,121A.52.52,0,0,1,88.65,121.18Z"/><path class="cls-16" d="M145.83,110.62a.46.46,0,0,1-.23-.06L137.11,106a2.53,2.53,0,0,0-2.39,0l-8.58,4.54a.49.49,0,0,1-.67-.2.5.5,0,0,1,.2-.68l8.59-4.55a3.52,3.52,0,0,1,3.32,0l8.49,4.56a.49.49,0,0,1,.2.67A.5.5,0,0,1,145.83,110.62Z"/><path class="cls-16" d="M143.21,117.35h-12.9a.5.5,0,0,1-.5-.5.5.5,0,0,1,.5-.5h12.4v-4.52h-6.65a.5.5,0,0,1-.5-.5v-3.16a.51.51,0,0,1,.5-.5.5.5,0,0,1,.5.5v2.66h6.65a.5.5,0,0,1,.5.5v5.52A.5.5,0,0,1,143.21,117.35Z"/><path class="cls-16" d="M136,124.28h-6.45a.5.5,0,0,1-.5-.5V111.33a.5.5,0,0,1,.5-.5h4.27a.5.5,0,0,1,0,1H130v11.45H136a.5.5,0,0,1,0,1Z"/><path class="cls-16" d="M139.8,114.7H129.53a.5.5,0,0,1-.5-.5.5.5,0,0,1,.5-.5H139.8a.5.5,0,0,1,.5.5A.51.51,0,0,1,139.8,114.7Z"/><path class="cls-16" d="M143.21,124.28h-1.54a7.12,7.12,0,0,1-5.61-3.45l-2.47-3.7a.5.5,0,0,1,.14-.69.49.49,0,0,1,.69.14l2.47,3.7a6.15,6.15,0,0,0,4.78,3h1.54a.5.5,0,0,1,0,1Z"/><path class="cls-16" d="M142.36,120.61h-6.18a.5.5,0,0,1,0-1h6.18a.5.5,0,0,1,0,1Z"/></g></g></svg>