<svg xmlns="http://www.w3.org/2000/svg" viewBox="0 0 798.21 925.65"><defs><style>.cls-1{fill:#ffc91a;}</style></defs><g id="Layer_2" data-name="Layer 2"><g id="Layer_1-2" data-name="Layer 1"><polygon class="cls-1" points="115.75 545.43 133.94 565.14 142.28 571.96 155.56 558.35 168.81 545.43 135.96 544.02 115.75 545.43"/><polygon class="cls-1" points="242.35 655.66 260.55 675.37 268.89 682.19 282.17 668.58 295.42 655.66 262.56 654.25 242.35 655.66"/><polygon class="cls-1" points="736.58 288.13 701.06 326.6 684.8 339.9 658.87 313.35 633.02 288.13 697.14 285.39 736.58 288.13"/><polygon class="cls-1" points="450.7 681.99 477.77 711.31 490.16 721.46 509.92 701.22 529.63 681.99 480.76 679.9 450.7 681.99"/><polygon class="cls-1" points="559.68 555.27 586.75 584.59 599.15 594.73 618.91 574.49 638.61 555.27 589.75 553.18 559.68 555.27"/><polygon class="cls-1" points="493.05 365.61 465.98 336.29 453.59 326.14 433.83 346.38 414.12 365.61 462.99 367.7 493.05 365.61"/><polygon class="cls-1" points="359.31 899.12 377.51 918.83 385.84 925.65 399.13 912.04 412.37 899.12 379.52 897.71 359.31 899.12"/><polygon class="cls-1" points="559.68 823.49 577.88 843.2 586.22 850.02 599.5 836.41 612.75 823.49 579.89 822.08 559.68 823.49"/><polygon class="cls-1" points="505.96 165.8 524.16 185.51 532.49 192.33 545.78 178.72 559.02 165.8 526.17 164.39 505.96 165.8"/><polygon class="cls-1" points="291.98 125.06 310.18 144.78 318.51 151.59 331.8 137.99 345.04 125.06 312.19 123.66 291.98 125.06"/><polygon class="cls-1" points="103.55 671.15 68.04 709.62 51.78 722.93 25.85 696.37 0 671.15 64.11 668.41 103.55 671.15"/><polygon class="cls-1" points="304.38 274.44 268.87 312.91 252.61 326.22 226.68 299.66 200.83 274.44 264.94 271.7 304.38 274.44"/><polygon class="cls-1" points="225.09 454.31 252.16 483.63 264.55 493.77 284.31 473.53 304.01 454.31 255.15 452.22 225.09 454.31"/><polygon class="cls-1" points="25.58 411.71 43.78 431.42 52.11 438.24 65.4 424.63 78.64 411.71 45.79 410.3 25.58 411.71"/><polygon class="cls-1" points="745.15 469.01 763.35 488.73 771.68 495.55 784.97 481.94 798.21 469.01 765.36 467.61 745.15 469.01"/><polygon class="cls-1" points="555.63 1.4 573.82 21.11 582.16 27.93 595.44 14.33 608.69 1.4 575.83 0 555.63 1.4"/><polygon class="cls-1" points="412.37 586.52 394.17 566.81 385.84 559.99 372.56 573.59 359.31 586.52 392.16 587.92 412.37 586.52"/><polygon class="cls-1" points="343.08 805.9 324.88 786.19 316.55 779.37 303.26 792.98 290.02 805.9 322.87 807.3 343.08 805.9"/><polygon class="cls-1" points="704.71 713.24 686.51 693.53 678.17 686.71 664.89 700.32 651.64 713.24 684.5 714.65 704.71 713.24"/><polygon class="cls-1" points="62.86 165.8 81.06 185.51 89.39 192.33 102.67 178.72 115.92 165.8 83.07 164.39 62.86 165.8"/></g></g></svg>