<svg xmlns="http://www.w3.org/2000/svg" viewBox="0 0 872.23 961.71"><defs><style>.cls-1{fill:#4390ba;}</style></defs><g id="Layer_2" data-name="Layer 2"><g id="Layer_1-2" data-name="Layer 1"><path class="cls-1" d="M383.84,290.87a9.62,9.62,0,0,0-3.45-13.26c-4.6-2.84-11.21-2.69-14.05,1.91s-.9,12.45,3.7,15.29S381,295.47,383.84,290.87Z"/><path class="cls-1" d="M331.55,358.32a8.14,8.14,0,0,0,10.87-4.06c2-4.12,1.29-9.67-2.83-11.66S329,342.92,327,347,327.43,356.33,331.55,358.32Z"/><path class="cls-1" d="M378.38,340.5a8.27,8.27,0,0,0,10.06,6.12c4.53-1,8.51-5,7.52-9.58s-6.88-8.21-11.42-7.21S377.38,336,378.38,340.5Z"/><path class="cls-1" d="M321.25,289.36a9,9,0,0,0-8.55,9.56c.17,5.05,3.71,10.12,8.77,9.95s10.16-5.74,10-10.79S326.31,289.19,321.25,289.36Z"/><path class="cls-1" d="M397.21,319.45a9.63,9.63,0,0,0,6.46-12.09c-1.45-5.21-6.41-9.58-11.62-8.12S383,307.77,384.4,313,392,320.9,397.21,319.45Z"/><path class="cls-1" d="M358.19,328.44a9.63,9.63,0,0,0,6.46-12.09c-1.46-5.21-6.42-9.57-11.63-8.12s-9.1,8.53-7.65,13.74S353,329.9,358.19,328.44Z"/><path class="cls-1" d="M313.1,336.39a9,9,0,0,0,12.62-2.12c3-4,3.41-10.21-.63-13.22s-11.5-1.86-14.52,2.18S309.06,333.38,313.1,336.39Z"/><path class="cls-1" d="M360.45,364.15A9.64,9.64,0,0,0,373.51,360c2.58-4.75,2.06-11.34-2.69-13.93s-12.48-.21-15.06,4.54S355.7,361.57,360.45,364.15Z"/><path class="cls-1" d="M335.76,279.09a8.57,8.57,0,0,0,5.24,11c4.5,1.72,10.26.47,12-4s-1.29-11-5.79-12.75S337.48,274.59,335.76,279.09Z"/><path class="cls-1" d="M642.44,159.75A9.63,9.63,0,0,0,639,146.48c-4.6-2.84-11.21-2.68-14,1.92s-.9,12.44,3.7,15.28S639.6,164.35,642.44,159.75Z"/><path class="cls-1" d="M590.15,227.2A8.16,8.16,0,0,0,601,223.14c2-4.12,1.28-9.67-2.84-11.67s-10.55.32-12.55,4.44S586,225.21,590.15,227.2Z"/><path class="cls-1" d="M637,209.38A8.27,8.27,0,0,0,647,215.49c4.53-1,8.51-5,7.52-9.57s-6.88-8.22-11.42-7.22S636,204.84,637,209.38Z"/><path class="cls-1" d="M579.85,158.23a9,9,0,0,0-8.55,9.56c.17,5.06,3.72,10.13,8.77,10s10.16-5.74,10-10.8S584.91,158.06,579.85,158.23Z"/><path class="cls-1" d="M655.81,188.32a9.62,9.62,0,0,0,6.46-12.09c-1.45-5.21-6.41-9.57-11.62-8.12s-9.1,8.53-7.65,13.74S650.61,189.77,655.81,188.32Z"/><path class="cls-1" d="M616.79,197.32a9.65,9.65,0,0,0,6.46-12.1c-1.46-5.2-6.42-9.57-11.62-8.12s-9.11,8.54-7.65,13.74S611.58,198.77,616.79,197.32Z"/><path class="cls-1" d="M571.7,205.27a9,9,0,0,0,12.62-2.13c3-4,3.41-10.2-.63-13.22s-11.5-1.86-14.52,2.19S567.66,202.25,571.7,205.27Z"/><path class="cls-1" d="M619.05,233a9.63,9.63,0,0,0,13.06-4.18c2.58-4.75,2.06-11.34-2.69-13.92s-12.48-.21-15.06,4.54S614.3,230.44,619.05,233Z"/><path class="cls-1" d="M594.36,148a8.58,8.58,0,0,0,5.24,11c4.5,1.71,10.26.47,12-4s-1.3-11-5.8-12.76S596.08,143.47,594.36,148Z"/><path class="cls-1" d="M338.87,654.55a9.61,9.61,0,0,0,4.05-13.09c-2.41-4.84-8.11-8.19-12.95-5.77s-7.32,10.1-4.91,14.94S334,657,338.87,654.55Z"/><path class="cls-1" d="M258.9,684.35a8.15,8.15,0,0,0,11.38,2.27c3.86-2.45,6.18-7.54,3.73-11.4s-9.14-5.29-13-2.84S256.44,680.49,258.9,684.35Z"/><path class="cls-1" d="M308.09,693.86a8.27,8.27,0,0,0,5.33,10.5c4.38,1.54,9.89.2,11.43-4.18S323.33,689.57,319,688,309.63,689.48,308.09,693.86Z"/><path class="cls-1" d="M286.46,620.3a9,9,0,0,0-12.3,3.62c-2.52,4.39-2.18,10.56,2.21,13.08s11.66.48,14.18-3.91S290.85,622.82,286.46,620.3Z"/><path class="cls-1" d="M335.19,685.88A9.63,9.63,0,0,0,347.05,679c1.5-5.2-.42-11.52-5.61-13s-12.23,2.46-13.74,7.65S330,684.38,335.19,685.88Z"/><path class="cls-1" d="M297.28,673a9.64,9.64,0,0,0,11.86-6.88c1.5-5.19-.42-11.52-5.61-13s-12.23,2.46-13.74,7.65S292.08,671.47,297.28,673Z"/><path class="cls-1" d="M254.76,656a9,9,0,0,0,11.85,4.84c4.69-1.85,8.27-6.88,6.42-11.57s-8.79-7.64-13.49-5.79S252.91,651.3,254.76,656Z"/><path class="cls-1" d="M280.4,704.52a9.62,9.62,0,0,0,13.3,3.32c4.69-2.68,7.72-8.55,5-13.25s-10.49-6.75-15.19-4.07S277.72,699.83,280.4,704.52Z"/><path class="cls-1" d="M304.2,619.21a8.58,8.58,0,0,0-1.35,12.14c2.92,3.83,8.47,5.8,12.3,2.88s4.71-10.06,1.79-13.89S308,616.29,304.2,619.21Z"/><path class="cls-1" d="M389.79,907A9.63,9.63,0,0,0,393.85,894c-2.42-4.84-8.12-8.19-13-5.77s-7.32,10.1-4.9,14.94S385,909.46,389.79,907Z"/><path class="cls-1" d="M309.82,936.84a8.16,8.16,0,0,0,11.38,2.28c3.86-2.46,6.19-7.55,3.74-11.41s-9.15-5.29-13-2.84S307.37,933,309.82,936.84Z"/><path class="cls-1" d="M359,946.35a8.27,8.27,0,0,0,5.33,10.5c4.38,1.54,9.9.2,11.44-4.18s-1.53-10.61-5.91-12.15S360.55,942,359,946.35Z"/><path class="cls-1" d="M337.39,872.79a9,9,0,0,0-12.31,3.62c-2.52,4.39-2.17,10.56,2.21,13.08s11.67.48,14.18-3.91S341.77,875.31,337.39,872.79Z"/><path class="cls-1" d="M386.11,938.37A9.63,9.63,0,0,0,398,931.5c1.51-5.19-.41-11.52-5.6-13s-12.23,2.46-13.74,7.65S380.92,936.87,386.11,938.37Z"/><path class="cls-1" d="M348.2,925.47a9.64,9.64,0,0,0,11.86-6.88c1.51-5.19-.41-11.52-5.6-13s-12.24,2.45-13.74,7.65S343,924,348.2,925.47Z"/><path class="cls-1" d="M305.69,908.48a9,9,0,0,0,11.84,4.84c4.7-1.85,8.28-6.88,6.43-11.57s-8.8-7.64-13.49-5.79S303.84,903.79,305.69,908.48Z"/><path class="cls-1" d="M331.32,957a9.62,9.62,0,0,0,13.3,3.32c4.7-2.68,7.72-8.55,5-13.25s-10.49-6.75-15.18-4.07S328.64,952.32,331.32,957Z"/><path class="cls-1" d="M355.13,871.7a8.58,8.58,0,0,0-1.36,12.14c2.92,3.83,8.47,5.8,12.3,2.88s4.72-10.06,1.8-13.89S359,868.78,355.13,871.7Z"/><path class="cls-1" d="M783.14,401.24A9.63,9.63,0,0,0,779.69,388c-4.6-2.84-11.21-2.68-14.05,1.92s-.91,12.44,3.69,15.28S780.3,405.84,783.14,401.24Z"/><path class="cls-1" d="M730.85,468.69a8.15,8.15,0,0,0,10.87-4.06c2-4.12,1.29-9.67-2.83-11.66s-10.56.32-12.55,4.44S726.73,466.7,730.85,468.69Z"/><path class="cls-1" d="M777.68,450.87A8.25,8.25,0,0,0,787.73,457c4.54-1,8.52-5,7.52-9.57s-6.88-8.22-11.41-7.22S776.68,446.33,777.68,450.87Z"/><path class="cls-1" d="M720.55,399.72a9,9,0,0,0-8.55,9.56c.17,5.06,3.71,10.13,8.77,10s10.16-5.74,10-10.8S725.6,399.56,720.55,399.72Z"/><path class="cls-1" d="M796.51,429.81A9.62,9.62,0,0,0,803,417.72c-1.45-5.2-6.42-9.57-11.62-8.12s-9.11,8.53-7.65,13.74S791.3,431.27,796.51,429.81Z"/><path class="cls-1" d="M757.48,438.81a9.63,9.63,0,0,0,6.46-12.09c-1.45-5.21-6.41-9.58-11.62-8.12s-9.1,8.53-7.65,13.74S752.28,440.26,757.48,438.81Z"/><path class="cls-1" d="M712.4,446.76A9,9,0,0,0,725,444.63c3-4,3.41-10.2-.63-13.22s-11.5-1.85-14.52,2.19S708.35,443.74,712.4,446.76Z"/><path class="cls-1" d="M759.75,474.51a9.61,9.61,0,0,0,13-4.18c2.58-4.75,2.06-11.34-2.69-13.92s-12.47-.21-15.05,4.54S755,471.93,759.75,474.51Z"/><path class="cls-1" d="M735.06,389.46a8.57,8.57,0,0,0,5.24,11c4.5,1.71,10.26.47,12-4s-1.29-11-5.79-12.75S736.77,385,735.06,389.46Z"/><path class="cls-1" d="M82.11,360a9.64,9.64,0,0,0-3.45-13.27c-4.6-2.84-11.21-2.68-14,1.92S63.7,361,68.3,363.88,79.27,364.55,82.11,360Z"/><path class="cls-1" d="M29.82,427.4a8.15,8.15,0,0,0,10.87-4.06c2-4.12,1.29-9.68-2.83-11.67s-10.56.32-12.55,4.44S25.7,425.4,29.82,427.4Z"/><path class="cls-1" d="M76.65,409.57a8.25,8.25,0,0,0,10,6.12c4.54-1,8.52-5,7.52-9.58s-6.88-8.21-11.41-7.21S75.65,405,76.65,409.57Z"/><path class="cls-1" d="M19.52,358.43A9,9,0,0,0,11,368c.17,5.06,3.71,10.12,8.77,10s10.16-5.74,10-10.8S24.57,358.26,19.52,358.43Z"/><path class="cls-1" d="M95.48,388.52a9.63,9.63,0,0,0,6.46-12.09c-1.45-5.21-6.42-9.58-11.62-8.12s-9.11,8.53-7.65,13.74S90.27,390,95.48,388.52Z"/><path class="cls-1" d="M56.45,397.51a9.62,9.62,0,0,0,6.46-12.09c-1.45-5.2-6.41-9.57-11.62-8.12s-9.1,8.53-7.65,13.74S51.25,399,56.45,397.51Z"/><path class="cls-1" d="M11.37,405.47A9,9,0,0,0,24,403.34c3-4,3.41-10.2-.64-13.22s-11.49-1.86-14.51,2.19S7.32,402.45,11.37,405.47Z"/><path class="cls-1" d="M58.72,433.22a9.62,9.62,0,0,0,13-4.18c2.58-4.75,2.06-11.34-2.69-13.92s-12.47-.22-15,4.53S54,430.64,58.72,433.22Z"/><path class="cls-1" d="M34,348.16a8.57,8.57,0,0,0,5.24,11c4.5,1.72,10.26.48,12-4s-1.29-11-5.79-12.76S35.74,343.66,34,348.16Z"/><path class="cls-1" d="M763.52,23.64a6.2,6.2,0,0,0,2.42-8.49c-1.62-3.08-5.34-5.16-8.42-3.53s-4.57,6.6-2.95,9.68S760.44,25.26,763.52,23.64Z"/><path class="cls-1" d="M712.44,44a5.24,5.24,0,0,0,7.36,1.3c2.45-1.63,3.88-4.94,2.24-7.4s-6-3.27-8.41-1.64S710.8,41.49,712.44,44Z"/><path class="cls-1" d="M744.25,49.38a5.33,5.33,0,0,0,3.58,6.69c2.84.93,6.37,0,7.3-2.86s-1.13-6.8-4-7.73S745.18,46.54,744.25,49.38Z"/><path class="cls-1" d="M729.29,2.32a5.8,5.8,0,0,0-7.87,2.5c-1.56,2.86-1.25,6.83,1.61,8.39s7.51.15,9.07-2.71S732.15,3.88,729.29,2.32Z"/><path class="cls-1" d="M761.58,43.87a6.2,6.2,0,0,0,7.54-4.6c.9-3.36-.42-7.41-3.79-8.31s-7.84,1.76-8.74,5.12S758.22,43,761.58,43.87Z"/><path class="cls-1" d="M737,36.08a6.19,6.19,0,0,0,7.54-4.59c.9-3.36-.42-7.41-3.79-8.31S732.9,24.94,732,28.3,733.63,35.19,737,36.08Z"/><path class="cls-1" d="M709.38,25.74a5.78,5.78,0,0,0,7.69,3c3-1.25,5.24-4.54,4-7.54s-5.77-4.79-8.77-3.53S708.12,22.75,709.38,25.74Z"/><path class="cls-1" d="M726.56,56.63a6.2,6.2,0,0,0,8.61,2c3-1.79,4.86-5.62,3.07-8.61s-6.85-4.2-9.84-2.41S724.77,53.65,726.56,56.63Z"/><path class="cls-1" d="M740.7,1.37A5.52,5.52,0,0,0,740,9.2c1.93,2.43,5.53,3.62,8,1.69s2.89-6.55,1-9S743.12-.57,740.7,1.37Z"/><path class="cls-1" d="M559.55,780.63a6.19,6.19,0,0,0,8-3.8c1.24-3.25.34-7.41-2.92-8.65s-8,.94-9.22,4.2S556.3,779.39,559.55,780.63Z"/><path class="cls-1" d="M510.53,755.77a5.24,5.24,0,0,0,3.89,6.38c2.85.76,6.27-.36,7-3.21s-1.49-6.64-4.33-7.4S511.29,752.92,510.53,755.77Z"/><path class="cls-1" d="M527.5,783.22a5.31,5.31,0,0,0-2.64,7.1c1.18,2.75,4.22,4.77,7,3.59s4.35-5.35,3.17-8.1S530.25,782,527.5,783.22Z"/><path class="cls-1" d="M552.89,740.86a5.79,5.79,0,0,0-7.08-4.24c-3.18.72-5.95,3.58-5.23,6.75s4.86,5.73,8,5S553.61,744,552.89,740.86Z"/><path class="cls-1" d="M543.11,792.56a6.2,6.2,0,0,0,8.43,2.62c3.12-1.56,5.28-5.23,3.72-8.34s-6.5-4.72-9.62-3.17S541.56,789.45,543.11,792.56Z"/><path class="cls-1" d="M532.67,769a6.2,6.2,0,0,0,8.43,2.61c3.12-1.55,5.28-5.22,3.72-8.34s-6.5-4.72-9.62-3.16S531.12,765.86,532.67,769Z"/><path class="cls-1" d="M522.15,741.43a5.8,5.8,0,0,0,2.88,7.72c2.93,1.42,6.87.92,8.29-2s-.23-7.49-3.15-8.91S523.57,738.5,522.15,741.43Z"/><path class="cls-1" d="M510.36,774.75a6.21,6.21,0,0,0,4.24,7.75c3.31,1.06,7.42-.08,8.47-3.39s-1.38-7.92-4.7-9S511.42,771.44,510.36,774.75Z"/><path class="cls-1" d="M561.15,748.79a5.53,5.53,0,0,0-6.34,4.65c-.53,3.06,1,6.55,4,7.09s6.82-2.17,7.36-5.22S564.21,749.32,561.15,748.79Z"/><path class="cls-1" d="M786.69,242a6.22,6.22,0,0,0,1.69-8.69c-1.89-2.94-5.79-4.69-8.72-2.8s-4,7-2.11,9.93S783.75,243.89,786.69,242Z"/><path class="cls-1" d="M737.42,266.72a5.27,5.27,0,0,0,7.47.67c2.31-1.85,3.44-5.28,1.6-7.59s-6.24-2.76-8.55-.91S735.58,264.41,737.42,266.72Z"/><path class="cls-1" d="M769.67,269.39a5.35,5.35,0,0,0,4.16,6.37c2.92.68,6.37-.57,7-3.49s-1.72-6.7-4.64-7.38S770.36,266.47,769.67,269.39Z"/><path class="cls-1" d="M750.64,223.67a5.8,5.8,0,0,0-7.64,3.18c-1.31,3-.66,6.94,2.33,8.25s7.52-.51,8.83-3.51S753.64,225,750.64,223.67Z"/><path class="cls-1" d="M786.52,262.37a6.21,6.21,0,0,0,7.13-5.24c.6-3.44-1.07-7.37-4.51-8s-7.68,2.43-8.29,5.87S783.08,261.77,786.52,262.37Z"/><path class="cls-1" d="M761.27,256.73a6.2,6.2,0,0,0,7.13-5.24c.61-3.44-1.07-7.37-4.5-8s-7.69,2.43-8.29,5.87S757.83,256.13,761.27,256.73Z"/><path class="cls-1" d="M732.78,248.8a5.82,5.82,0,0,0,8,2.28c2.88-1.52,4.83-5,3.32-7.88s-6.19-4.29-9.07-2.77S731.27,245.91,732.78,248.8Z"/><path class="cls-1" d="M752.63,278.17a6.22,6.22,0,0,0,8.78,1.2c2.83-2.05,4.36-6,2.31-8.86s-7.21-3.6-10-1.55S750.59,275.34,752.63,278.17Z"/><path class="cls-1" d="M762,221.73a5.55,5.55,0,0,0,0,7.89c2.14,2.25,5.84,3.13,8.1,1s2.32-6.8.18-9.05S764.21,219.58,762,221.73Z"/><path class="cls-1" d="M42.92,142.07a4.89,4.89,0,0,0,1.32-6.83c-1.48-2.3-4.54-3.68-6.85-2.2a6.22,6.22,0,0,0-1.65,7.81C37.22,143.15,40.61,143.55,42.92,142.07Z"/><path class="cls-1" d="M4.23,161.48a4.12,4.12,0,0,0,5.86.52c1.81-1.44,2.71-4.14,1.26-5.95a5.24,5.24,0,0,0-6.72-.72A4.48,4.48,0,0,0,4.23,161.48Z"/><path class="cls-1" d="M29.55,163.58a4.2,4.2,0,0,0,3.27,5c2.29.53,5-.44,5.53-2.74a5.32,5.32,0,0,0-3.64-5.8A4.56,4.56,0,0,0,29.55,163.58Z"/><path class="cls-1" d="M14.61,127.67a4.57,4.57,0,0,0-6,2.5c-1,2.35-.52,5.45,1.83,6.48a5.78,5.78,0,0,0,6.93-2.75C18.4,131.55,17,128.7,14.61,127.67Z"/><path class="cls-1" d="M42.78,158.07a4.88,4.88,0,0,0,5.6-4.12c.48-2.7-.84-5.79-3.54-6.26s-6,1.91-6.51,4.61S40.08,157.59,42.78,158.07Z"/><path class="cls-1" d="M23,153.64a4.9,4.9,0,0,0,5.61-4.12c.47-2.7-.84-5.78-3.54-6.26a6.2,6.2,0,0,0-6.51,4.61C18,150.57,20.25,153.16,23,153.64Z"/><path class="cls-1" d="M.59,147.41a4.56,4.56,0,0,0,6.23,1.79c2.27-1.19,3.8-3.92,2.61-6.19a5.78,5.78,0,0,0-7.12-2.18C0,142-.6,145.14.59,147.41Z"/><path class="cls-1" d="M16.17,170.47a4.89,4.89,0,0,0,6.89.95c2.22-1.61,3.43-4.74,1.82-7A6.19,6.19,0,0,0,17,163.24C14.78,164.85,14.57,168.25,16.17,170.47Z"/><path class="cls-1" d="M23.5,126.15a4.36,4.36,0,0,0,0,6.2c1.68,1.77,4.59,2.46,6.36.77A5.51,5.51,0,0,0,30,126,4.71,4.71,0,0,0,23.5,126.15Z"/><path class="cls-1" d="M76.36,628.35a4.89,4.89,0,0,0,1.33-6.83c-1.49-2.31-4.55-3.68-6.85-2.2a6.19,6.19,0,0,0-1.66,7.8C70.67,629.43,74.05,629.83,76.36,628.35Z"/><path class="cls-1" d="M37.67,647.76a4.13,4.13,0,0,0,5.86.52c1.82-1.45,2.71-4.14,1.26-5.95a5.23,5.23,0,0,0-6.71-.72A4.47,4.47,0,0,0,37.67,647.76Z"/><path class="cls-1" d="M63,649.86a4.19,4.19,0,0,0,3.26,5c2.29.53,5-.45,5.54-2.74a5.33,5.33,0,0,0-3.65-5.8A4.53,4.53,0,0,0,63,649.86Z"/><path class="cls-1" d="M48.05,614a4.57,4.57,0,0,0-6,2.5c-1,2.35-.52,5.45,1.83,6.48a5.8,5.8,0,0,0,6.94-2.75C51.85,617.83,50.4,615,48.05,614Z"/><path class="cls-1" d="M76.22,644.35a4.9,4.9,0,0,0,5.61-4.12c.47-2.7-.84-5.79-3.54-6.26a6.19,6.19,0,0,0-6.51,4.61C71.3,641.28,73.52,643.87,76.22,644.35Z"/><path class="cls-1" d="M56.4,639.92A4.88,4.88,0,0,0,62,635.8c.48-2.7-.84-5.78-3.54-6.26A6.21,6.21,0,0,0,52,634.15C51.48,636.85,53.7,639.44,56.4,639.92Z"/><path class="cls-1" d="M34,633.69a4.56,4.56,0,0,0,6.24,1.79c2.26-1.19,3.79-3.92,2.6-6.19a5.78,5.78,0,0,0-7.12-2.18C33.49,628.3,32.84,631.42,34,633.69Z"/><path class="cls-1" d="M49.62,656.75a4.89,4.89,0,0,0,6.89,1c2.22-1.61,3.42-4.74,1.81-7a6.19,6.19,0,0,0-7.88-1.22C48.22,651.13,48,654.53,49.62,656.75Z"/><path class="cls-1" d="M56.94,612.43a4.35,4.35,0,0,0,0,6.19c1.69,1.77,4.59,2.47,6.36.78a5.52,5.52,0,0,0,.15-7.1A4.72,4.72,0,0,0,56.94,612.43Z"/><path class="cls-1" d="M857.93,670.78a10.64,10.64,0,0,0,13.51-6.87c2-5.64.25-12.74-5.39-14.72s-13.65,2-15.63,7.61S852.29,668.8,857.93,670.78Z"/><path class="cls-1" d="M772.7,630.24a9,9,0,0,0,7,10.78c4.92,1.18,10.75-.89,11.93-5.81s-2.84-11.33-7.77-12.51S773.88,625.32,772.7,630.24Z"/><path class="cls-1" d="M803,676.61a9.14,9.14,0,0,0-4.23,12.32c2.14,4.66,7.46,8,12.12,5.85s7.24-9.37,5.1-14S807.69,674.46,803,676.61Z"/><path class="cls-1" d="M844.77,602.81a10,10,0,0,0-12.35-7c-5.42,1.38-10.06,6.4-8.68,11.83s8.6,9.62,14,8.24S846.15,608.23,844.77,602.81Z"/><path class="cls-1" d="M830.22,692a10.65,10.65,0,0,0,14.59,4.12c5.28-2.8,8.83-9.19,6-14.48s-11.37-7.81-16.65-5S827.42,686.7,830.22,692Z"/><path class="cls-1" d="M811.28,652a10.65,10.65,0,0,0,14.59,4.12c5.28-2.8,8.83-9.2,6-14.48s-11.37-7.82-16.65-5S808.48,646.67,811.28,652Z"/><path class="cls-1" d="M792,605.12a10,10,0,0,0,5.28,13.13c5.08,2.3,11.83,1.28,14.13-3.81s-.71-12.86-5.79-15.16S794.33,600,792,605.12Z"/><path class="cls-1" d="M773.24,662.84c-1.66,5.74,1.87,11.44,7.61,13.11s12.73-.46,14.4-6.2-2.72-13.52-8.46-15.19S774.91,657.09,773.24,662.84Z"/><path class="cls-1" d="M859.29,616.05a9.49,9.49,0,0,0-10.68,8.27c-.79,5.27,1.92,11.2,7.19,12s11.62-4,12.41-9.28S864.56,616.84,859.29,616.05Z"/></g></g></svg>