<svg xmlns="http://www.w3.org/2000/svg" viewBox="0 0 1029.21 762.87"><defs><style>.cls-1{fill:#ff76dc;}</style></defs><g id="Layer_2" data-name="Layer 2"><g id="Layer_1-2" data-name="Layer 1"><path class="cls-1" d="M567.21,376.92a194.82,194.82,0,0,0,9.6,26.39l37.88-4.42,26.75-5.34a34.19,34.19,0,0,0,4.65-16.18l-29.94-1.14-19.92,1.1-29.39-2.57A15.76,15.76,0,0,0,567.21,376.92Z"/><path class="cls-1" d="M606.67,428.63c10.92,0,15.21-8.35,22.35-17.74,2.52-3.32,5.4-6.78,8.07-10.47l-38.67,4.32-18.65,4.33C586.21,420.52,594.67,428.63,606.67,428.63Z"/><path class="cls-1" d="M606.67,325.21c-11-4.77-17.57,6.8-23.59,17.78l20.64,2.54,29-.9A81.45,81.45,0,0,0,606.67,325.21Z"/><path class="cls-1" d="M579.19,349.9c-3.85,6.44-10.32,11.79-12.15,18.72l24.44,2.86h31.61l22.63-.26a47.38,47.38,0,0,0-8.09-20.29l-19.11-1.38L579.71,349C579.53,349.31,579.36,349.61,579.19,349.9Z"/><path class="cls-1" d="M105.87,662.41a142.28,142.28,0,0,0,7,19.15l27.48-3.21,19.42-3.87a25,25,0,0,0,3.37-11.74l-21.73-.83-14.45.79-21.32-1.86A11.41,11.41,0,0,0,105.87,662.41Z"/><path class="cls-1" d="M134.51,699.93c7.92,0,11-6.06,16.22-12.88,1.83-2.4,3.91-4.91,5.85-7.59l-28.06,3.13L115,685.74C119.66,694,125.8,699.93,134.51,699.93Z"/><path class="cls-1" d="M134.51,624.89c-8-3.46-12.76,4.93-17.12,12.89l15,1.85,21.06-.66A59,59,0,0,0,134.51,624.89Z"/><path class="cls-1" d="M114.57,642.8c-2.8,4.67-7.49,8.56-8.82,13.59l17.73,2.07h22.94l16.42-.19A34.4,34.4,0,0,0,157,643.55l-13.86-1-28.17-.39Z"/><path class="cls-1" d="M691.72,84a119.44,119.44,0,0,0,5.86,16.11l23.12-2.7L737,94.14a20.94,20.94,0,0,0,2.84-9.88l-18.28-.69-12.15.66L691.5,82.67A9,9,0,0,0,691.72,84Z"/><path class="cls-1" d="M715.81,115.54c6.66,0,9.28-5.09,13.64-10.82,1.54-2,3.29-4.14,4.93-6.39L710.77,101l-11.38,2.65C703.32,110.6,708.48,115.54,715.81,115.54Z"/><path class="cls-1" d="M715.81,52.42c-6.69-2.91-10.73,4.15-14.4,10.85L714,64.83l17.71-.56A49.71,49.71,0,0,0,715.81,52.42Z"/><path class="cls-1" d="M699,67.49c-2.35,3.93-6.3,7.2-7.42,11.43l14.92,1.75h19.29l13.81-.17a29,29,0,0,0-4.93-12.38L723,67.28,699.35,67C699.24,67.13,699.14,67.32,699,67.49Z"/><path class="cls-1" d="M.36,184.57a191.54,191.54,0,0,0,9.4,25.86l37.12-4.33,26.21-5.23A33.71,33.71,0,0,0,77.65,185L48.31,183.9,28.79,185,0,182.46A13.7,13.7,0,0,0,.36,184.57Z"/><path class="cls-1" d="M39,235.23c10.7,0,14.9-8.17,21.9-17.38,2.47-3.25,5.29-6.63,7.91-10.26l-37.89,4.24-18.28,4.24C19,227.29,27.26,235.23,39,235.23Z"/><path class="cls-1" d="M39,133.91c-10.74-4.67-17.22,6.66-23.12,17.41l20.23,2.5,28.44-.89A79.62,79.62,0,0,0,39,133.91Z"/><path class="cls-1" d="M12.1,158.1C8.33,164.41,2,169.65.2,176.45l23.94,2.79h31L77.28,179a46.39,46.39,0,0,0-7.92-19.88l-18.73-1.35-38-.52C12.43,157.52,12.27,157.82,12.1,158.1Z"/><path class="cls-1" d="M836,139.26a139,139,0,0,0,6.92,19l27.29-3.19,19.29-3.84a24.78,24.78,0,0,0,3.35-11.66l-21.58-.83-14.36.79L835.7,137.7A11.34,11.34,0,0,0,836,139.26Z"/><path class="cls-1" d="M864.41,176.53c7.87,0,11-6,16.11-12.79,1.81-2.39,3.89-4.88,5.81-7.55l-27.87,3.12L845,162.43C849.66,170.68,855.76,176.53,864.41,176.53Z"/><path class="cls-1" d="M864.41,102c-7.9-3.43-12.67,4.9-17,12.81l14.88,1.84L883.2,116A58.72,58.72,0,0,0,864.41,102Z"/><path class="cls-1" d="M844.6,119.79c-2.77,4.64-7.43,8.5-8.75,13.49l17.61,2.06h22.78l16.31-.19a34.07,34.07,0,0,0-5.83-14.62l-13.77-1-28-.39C844.85,119.36,844.73,119.58,844.6,119.79Z"/><path class="cls-1" d="M897.09,454.56a141.71,141.71,0,0,0,6.92,19l27.3-3.18,19.28-3.85a24.63,24.63,0,0,0,3.35-11.66l-21.58-.82-14.35.79L896.83,453A11.15,11.15,0,0,0,897.09,454.56Z"/><path class="cls-1" d="M925.53,491.83c7.87,0,11-6,16.11-12.79,1.82-2.39,3.89-4.88,5.82-7.54l-27.87,3.11-13.45,3.12C910.79,486,916.88,491.83,925.53,491.83Z"/><path class="cls-1" d="M925.53,417.3c-7.89-3.44-12.66,4.89-17,12.81l14.88,1.83,20.92-.65A58.54,58.54,0,0,0,925.53,417.3Z"/><path class="cls-1" d="M905.73,435.09c-2.78,4.64-7.44,8.5-8.76,13.49l17.62,2.06h22.78l16.31-.19a34.25,34.25,0,0,0-5.83-14.62l-13.77-1-28-.39Z"/><path class="cls-1" d="M505.34,23.79c1.59,5.29-3.1,8.39-5.52,12.43-3.32,5.56-6.5,14-12.64,11.35C482.17,45.4,469,36.92,469,23.79c0-6.56,4.6-11.33,7.87-15.63S482.16,0,487.18,0C497.21,0,501.88,12.27,505.34,23.79Z"/><path class="cls-1" d="M770.88,294c1.59,5.29-3.1,8.39-5.52,12.43-3.32,5.56-6.5,14-12.63,11.36-5-2.18-18.16-10.65-18.16-23.79,0-6.55,4.6-11.32,7.87-15.63s5.26-8.16,10.29-8.16C762.75,270.18,767.42,282.45,770.88,294Z"/><path class="cls-1" d="M1005.79,107.44c1.59,5.29-3.1,8.39-5.52,12.43-3.32,5.55-6.5,14-12.64,11.35-5-2.18-18.15-10.65-18.15-23.78,0-6.56,4.6-11.33,7.87-15.63s5.26-8.16,10.28-8.16C997.66,83.65,1002.32,95.91,1005.79,107.44Z"/><path class="cls-1" d="M416.58,738.57c1.59,5.3-3.1,8.4-5.51,12.44-3.33,5.55-6.5,14-12.64,11.35-5-2.18-18.16-10.65-18.16-23.79,0-6.55,4.6-11.32,7.87-15.62s5.26-8.16,10.29-8.16C408.45,714.79,413.12,727.05,416.58,738.57Z"/><path class="cls-1" d="M828,581.44c1.59,5.3-3.1,8.39-5.51,12.43-3.32,5.56-6.5,14-12.64,11.36-5-2.18-18.16-10.65-18.16-23.79,0-6.55,4.6-11.32,7.87-15.63s5.26-8.16,10.29-8.16C819.88,557.65,824.55,569.92,828,581.44Z"/><path class="cls-1" d="M1028.89,670.94c1.59,5.3-3.1,8.4-5.52,12.44-3.32,5.55-6.5,14-12.64,11.35-5-2.18-18.15-10.65-18.15-23.79,0-6.55,4.6-11.32,7.87-15.62s5.26-8.16,10.28-8.16C1020.76,647.16,1025.42,659.42,1028.89,670.94Z"/></g></g></svg>