<svg xmlns="http://www.w3.org/2000/svg" viewBox="0 0 537.13 363.36"><defs><style>.cls-1{fill:#fff;}</style></defs><g id="Layer_2" data-name="Layer 2"><g id="Layer_1-2" data-name="Layer 1"><path class="cls-1" d="M39.87,357.91l.15,0Z"/><path class="cls-1" d="M78.66,319.76c.9-4.05-.9-14.39-1.8-18s-.9-4.95-1.8-6.3a11,11,0,0,1-1.79-4.94c0-1.35,1.34-6.29,1.34-8.09s-4.49-19.33-4.49-19.33-4.5-8.36-5.4-13.17a80,80,0,0,1-1.34-10.65c0-1.35.45-5,.45-6.29s.45-7.2,0-9-4.5-10.34-7.2-11.24-4.94,0-4.94-2.25.9-9.44,0-11.68-5.84-6.75-5.84-6.75l-4.4-27.41L40,136.54s-2.62,23.26-4.59,30.3,0,20.07,0,20.07a9.72,9.72,0,0,1-7.22,3.37c-4.59,0-6.55-7.22-6.55,0S23.87,198,23.87,198s-5.44,15.28-6.34,19.77,5.84,5.85,0,9.44a60.27,60.27,0,0,0-9.89,7.64S3.15,240.2,2.7,242s-.9-3.6-.9,5.84-4,18.88,0,22.47,5.84,4.95,5.84,7.19a107.35,107.35,0,0,1,0,12.59c-.45,7.19.45,4.5-.45,7.19S4.05,300,4.5,304s.89,13.23,3.14,17.63,2.25,8.89,2.7,10.24S18,340.43,18,340.43s7.64,4.5,10.34,8.09a23.27,23.27,0,0,1,3.59,6.74l8,2.65c-.71-.24-3.86-1.49.15-3.09,4.48-1.8,2.68-4.05,6.28-1.8s6.29,4.94,9.88,7.64l3.6,2.7a18.23,18.23,0,0,1,3.6-4.5c1.79-1.35,5.84-2.25,5.84-2.25s4-.45,5.39-.45,2.7,1.35,4-.45,3.59-4,4-7.19,0-9.44,0-13S77.76,323.8,78.66,319.76Z"/><path class="cls-1" d="M125.85,155.25a86.69,86.69,0,0,0,.45-10.34v-8.37l-5.84,3.26-4-3.26s-5-1.07-4-4.22,4.49-4,4.49-4,6.3-.9,5.85-3.6-2.7-5.84-4-9.89-3.14-8.09-4-11.68-3.48-9-3.76-10.79-3-7.64-4.33-9.89-8.09-8.54-8.09-8.54V84.68c0,1.8,2.69,4.94,2.69,4.94s2.7,6.3,1.8,8.09-1.16-.45-2.15,5,3,19.33,2.33,22.47.33,13.48.07,14.61-2.89,4.72,0,8.32.65,7.19,5.59,9.88a27.07,27.07,0,0,0,9,3.15h4.95S125.4,157.94,125.85,155.25Z"/><path class="cls-1" d="M514.65,257.28c-1.79-5.4-3.59-8-4.49-8.72s-3.15-4.77-3.15-4.77-4.49-9-6.29-9.44-7.64-1.34-7.64-1.34l-4.5-2.7s-1.34-3.6-2.69-4.05-4.05-2.69-5.85-3.14a26.16,26.16,0,0,0-5.84-.9c-1.8,0-12.14-15.73-14.38-16.63s-21.58-18.68-21.58-18.68-1.35-3.35-6.29-4.25-9,0-9.89-1.34-9-9.89-9.89-11.24-14.83-9-14.83-9L384.3,149s-5.84-4.94-7.19-4.94-8.54-7.19-9.89-2.25-4,4.5-.89,8.54,4,4,6.29,7.64,4.94,5.4,4.94,9,.9,7.64.9,10.34-2.7-.45,3.15,7.64,7.19,9.44,7.64,10.79.45,11.24,1.35,16.18-2.25,19.33-2.25,19.33,2.7.61,2.25,4.35-6.3,7.33-6.3,7.33l-14.38,1.8a99.29,99.29,0,0,0-13.48,3.15c-2.7.9-8.09.18-9.89,2.11s-10.79,1.93-12.14,1.93a40.52,40.52,0,0,0-10.79,1.8c-3.59,1.35-5.84,1.8-11.68,1.8s-20.23-.45-23.82,0a80.94,80.94,0,0,1-10.79,0s-7.19-4.77-7.64-5.53,5.39-3.46-3.15-5.71-14.38-4.94-16.18-4.94-5.39-3-16.63-3.74a72.28,72.28,0,0,1-19.33-3.9l-9-8.09s-3.59-5.4-6.74-5.4h-9.44l-2.7-7.19S165,188,163.61,186.91s-3.15-3.8-7.19-4.25l-4-.45s-1.34-6.29-1.34-7.64-5.85-9.44-7.2-9.44-20.67.9-20.67.9-6.3,3.15-2.7,7.2S126.3,180,126.3,180s4.5,2.69,2.7,4.94-4.94,2.25-2.7,4.5,8.09,2.24,8.09,2.24,0-3.59,2.7,5.4a175.06,175.06,0,0,0,10.34,25.62c2.25,4,4.49,5.84,7.19,10.34s4,7.19,6.29,9,3.6,2.24,7.64,4.49a42,42,0,0,0,9,3.46v11.82s21.58,14.39,22.93,16.18,7.19,7.2,7.19,7.2,4,2.69,5.39,2.69,6.3,4.05,9.89,4.5a33,33,0,0,0,7.19,0s6.3,5.84,7.64,8.09,0,3.14,5.85,5.39,7.64,2.25,11.68,3.6,19.33-1.8,21.13,0,9,0,10.79,2.69,3.14,5.4,9.44,7.2,8.54-1.8,11.68,0S321.83,322,321.83,322l5.84,3.6H341.6c5.4,0,5.85-.45,9.44,0s19.78,0,19.78,0l6.74,4.49s7.64-2.24,8.54,0,9.89,0,9.89,0,32.36-6.29,41.8-5.39,9.89,2.7,13.49,0,7.19-5.84,11.23-7.19a76.26,76.26,0,0,0,10.34-4.95l3.6-4.49s13.48-.9,20.67-3.6,8.09-3.59,12.59-8.09,6.74-5.39,6.74-9.89V276.16s3.15-4.5,3.15-6.3a26.28,26.28,0,0,0-1.8-8.09C516.9,260,516.45,262.67,514.65,257.28Z"/><path class="cls-1" d="M535.33,71.19c-4.05-3.14-4.94.9-4.94-9s.89-12.13,0-15.28-3.15-10.34-3.15-10.34l-4.5-9.88L514.65,20l-3.59-3.59-1.8-5.85s-9.44-4-10.79-4.94-5.39,2.7-7.64,0S481.39,2,480,1.08,472-.27,467.46.18s-15.73,3.14-17.53,3.14-6.29-.9-10.79,0-21.57,7.64-24.72,9-19.78,9-20.68,10.34-4.49,6.74-9,8.09S374,33.44,374,33.44s-7.64,7.19-9,8.09S348.35,55,347,56.81s-5.4,4-7.64,9.44-4.95,7.64-4.95,7.64l-7.19-3.59-1.8,21.57s-6.29,1.35-10.34,1.8-4,2.7-4.94,6.74-8.09.46-10.34,0-6.29,1.36-8.54,0-.9-6.73-4.94,0A67.47,67.47,0,0,1,276,113s-9,2.69-11.69.89-1.79-3.14-5.39-9S252.16,93.22,250.36,91s-6.74-9.44-8.09-10.79S237.33,77,236,73.89,225.64,69,225.64,69s-1.8,1.35-5.4,0-8.09-3.6-9-5-7.2-6.29-7.65-8.09-1.79-9.44-1.79-9.44V34.34l6.74,1.79V24s-9.89,4.49-12.59,6.07a54.67,54.67,0,0,0-8.09,6.06,17.34,17.34,0,0,0-4.49,6.3l.9,12.13a29,29,0,0,0,0,9.44c.9,4.5,3.14,13.49,3.14,17.08s-.45,5,1.35,9,1.8,4.05,3.15,7.64,2.24,10.34,4,13,4.95,9.89,4.95,12.58-.9,4.5,0,9.89,2.69,11.24,4.49,12.59,15.28,20.67,18,23.37,12.14,13,13.49,14.38a30.8,30.8,0,0,0,9,5.85c3.59,1.35,10.33,4.94,12.13,5.84a43.3,43.3,0,0,0,12.14,4.94c7.19,1.8,8.54-.89,10.34,0s1.34.9,3.14-1.34-.9-.9,1.8-2.25,4.49-2.7,8.09-1.35a59.54,59.54,0,0,0,9,2.25s-.9,2.24,5.84-4.05a104.58,104.58,0,0,0,11.13-12.13s.8-9,0-13,.11-6.74-2.59-10.34-3.59-5.39-3.59-7.64-2.25-1.8.45-5.39,12.58-19.33,13.93-20.68,7.64-7.19,7.64-9.44-3.59-1.79,0-4a35.7,35.7,0,0,0,5.84-4.5S345.2,97.71,347.9,95s5.39-4,6.74-6.3,2.25-10.78,2.25-10.78l16.18-17.53L385.2,55s.45-7.64,4.95-11.23,11.24-8.54,15.28-9.44a70.48,70.48,0,0,1,11.24-1.8c2.24,0,8.54-.45,12.58.9s11.69.45,12.59,4.49-.9,3.15,0,8.09,1.87,6.3.26,9.89.19,3.15-3,7.64-6.29,6.3-9,10.34-2.7,4.5-9,9.89-14.38,9.44-15.73,10.79-3.15,2.24-4.49,4.49-4.95,5-4.5,8.54,1.35,4.68,4.5,4.81,9.43,0,9.43,0-3.14-4.81-1.79-5.26,5.84,1.08,10.33,5.26,2.25,3.28,6.75,5.08,16.18,1.8,19.77,1.8,7.2,0,10.34-1.8a67.37,67.37,0,0,0,7.19-5.08,7.42,7.42,0,0,0,2.25-2.11l.9-1.35a45.58,45.58,0,0,1,5.39,3.46c1.8,1.48.45,2.38,4.5,2.83a48.46,48.46,0,0,0,13.93-.9c4.05-.89,6.3-1.16,9-1.93s12.59,1.67,15.73,0,6.75-7.5,9.89-9.75,4.5-2.25,5.85-6.74a32.29,32.29,0,0,1,3.14-7.65c1.35-2.69,1.8-11.68,1.8-11.68S539.38,74.34,535.33,71.19ZM453.52,55.91c-1.79-.45-4.94.9-6.29,0s0-1.8,0-4,8.54-3.6,8.54-3.6S455.32,56.36,453.52,55.91Z"/></g></g></svg>