<svg xmlns="http://www.w3.org/2000/svg" viewBox="0 0 803.38 127.85"><defs><style>.cls-1{fill:#f7a542;}</style></defs><g id="Layer_2" data-name="Layer 2"><g id="Layer_1-2" data-name="Layer 1"><path class="cls-1" d="M773,25.39a3.67,3.67,0,0,1-2.59-6.27l4.5-4.5a14.24,14.24,0,0,0,4.2-10.14,3.68,3.68,0,1,1,7.35,0,21.55,21.55,0,0,1-6.35,15.33l-4.51,4.51A3.7,3.7,0,0,1,773,25.39Z"/><path class="cls-1" d="M747.29,25.39a3.7,3.7,0,0,1-2.6-1.07l-4.5-4.51a21.52,21.52,0,0,1-6.36-15.33,3.68,3.68,0,1,1,7.35,0,14.24,14.24,0,0,0,4.2,10.14l4.51,4.5a3.67,3.67,0,0,1-2.6,6.27Z"/><path class="cls-1" d="M725,60h-11.1A13.27,13.27,0,0,1,700.66,46.7V6.55a3.67,3.67,0,1,1,7.34,0V46.7a5.92,5.92,0,0,0,5.91,5.91H725A3.68,3.68,0,0,1,725,60Z"/><path class="cls-1" d="M702.6,127.05a3.67,3.67,0,0,1-3.67-3.67V68.15A5.92,5.92,0,0,0,693,62.24h-7.76a3.68,3.68,0,0,1,0-7.35H693a13.28,13.28,0,0,1,13.26,13.26v55.23A3.67,3.67,0,0,1,702.6,127.05Z"/><path class="cls-1" d="M674.66,108.38a3.67,3.67,0,1,1,0-7.34,10.68,10.68,0,0,0,10.57-9.31l2.44-19a3.68,3.68,0,1,1,7.29.94l-2.45,19A18,18,0,0,1,674.66,108.38Z"/><path class="cls-1" d="M691.31,49.78a3.67,3.67,0,0,1-3.64-3.2l-2.44-19a10.57,10.57,0,0,0-2.69-5.81A3.68,3.68,0,0,1,688,16.78a17.92,17.92,0,0,1,4.53,9.82l2.45,19a3.68,3.68,0,0,1-3.18,4.11Z"/><path class="cls-1" d="M714.68,49.78a3.87,3.87,0,0,1-.48,0A3.67,3.67,0,0,1,711,45.64l2.44-19A17.86,17.86,0,0,1,718,16.78a3.67,3.67,0,0,1,5.43,4.95,10.55,10.55,0,0,0-2.68,5.81l-2.45,19A3.66,3.66,0,0,1,714.68,49.78Z"/><path class="cls-1" d="M720.73,103.7a3.68,3.68,0,0,1-2.72-1.2,17.92,17.92,0,0,1-4.54-9.83l-2.44-19a3.67,3.67,0,1,1,7.28-.94l2.45,19a10.48,10.48,0,0,0,2.68,5.82,3.68,3.68,0,0,1-2.71,6.15Z"/><path class="cls-1" d="M761.36,84.08a3.67,3.67,0,0,1-3.67-3.67V40.31a5.22,5.22,0,0,0-5.21-5.22H729.23a3.68,3.68,0,0,1,0-7.35h23.25A12.58,12.58,0,0,1,765,40.31v40.1A3.67,3.67,0,0,1,761.36,84.08Z"/><path class="cls-1" d="M797,36.27H773.16a3.67,3.67,0,1,1,0-7.34H797a3.67,3.67,0,1,1,0,7.34Z"/><path class="cls-1" d="M793.72,60H723.51a3.68,3.68,0,0,1,0-7.35h70.21a3.68,3.68,0,0,1,0,7.35Z"/><path class="cls-1" d="M799.71,84.08H727a3.68,3.68,0,0,1,0-7.35h72.72a3.68,3.68,0,0,1,0,7.35Z"/><path class="cls-1" d="M750.65,127.05a3.67,3.67,0,0,1-3.68-3.67V93.86a3.68,3.68,0,1,1,7.35,0v29.52A3.67,3.67,0,0,1,750.65,127.05Z"/><path class="cls-1" d="M769.6,127.05a3.67,3.67,0,0,1-3.68-3.67V93.86a3.68,3.68,0,1,1,7.35,0v29.52A3.67,3.67,0,0,1,769.6,127.05Z"/><path class="cls-1" d="M792.54,127.05a3.67,3.67,0,0,1-3.67-3.67V111.84a16.28,16.28,0,0,0-3.13-9.64L781.24,96a3.67,3.67,0,1,1,5.94-4.31l4.5,6.19a23.55,23.55,0,0,1,4.54,14v11.54A3.67,3.67,0,0,1,792.54,127.05Z"/><path class="cls-1" d="M727.7,127.05a3.67,3.67,0,0,1-3.67-3.67V111.84a23.55,23.55,0,0,1,4.54-14l4.49-6.19A3.67,3.67,0,1,1,739,96l-4.49,6.19a16.3,16.3,0,0,0-3.13,9.64v11.54A3.67,3.67,0,0,1,727.7,127.05Z"/><path class="cls-1" d="M550.47,41.71h-.76a3.68,3.68,0,0,1,0-7.35h.76a9.81,9.81,0,0,0,9.81-9.8v-18a3.68,3.68,0,1,1,7.35,0v18A17.17,17.17,0,0,1,550.47,41.71Z"/><path class="cls-1" d="M606.56,125a3.67,3.67,0,0,1-3.67-3.68V26.65a5.22,5.22,0,0,0-5.22-5.21H565.09a3.68,3.68,0,1,1,0-7.35h32.58a12.57,12.57,0,0,1,12.56,12.56v94.68A3.67,3.67,0,0,1,606.56,125Z"/><path class="cls-1" d="M657.78,21.44H621.36a3.68,3.68,0,0,1,0-7.35h36.42a3.68,3.68,0,0,1,0,7.35Z"/><path class="cls-1" d="M565.09,89.88a3.68,3.68,0,0,1-3.68-3.68V60.8A12.57,12.57,0,0,1,574,48.25h79a3.67,3.67,0,1,1,0,7.34H574a5.22,5.22,0,0,0-5.21,5.21V86.2A3.68,3.68,0,0,1,565.09,89.88Z"/><path class="cls-1" d="M659.59,91.69H541.74a3.68,3.68,0,0,1,0-7.35H659.59a3.68,3.68,0,1,1,0,7.35Z"/><path class="cls-1" d="M183.49,58.92h-11.1a13.27,13.27,0,0,1-13.25-13.26V5.51a3.67,3.67,0,1,1,7.34,0V45.66a5.92,5.92,0,0,0,5.91,5.91h11.1a3.68,3.68,0,0,1,0,7.35Z"/><path class="cls-1" d="M161.08,126a3.67,3.67,0,0,1-3.67-3.67V67.11a5.92,5.92,0,0,0-5.92-5.91h-7.75a3.68,3.68,0,1,1,0-7.35h7.75a13.27,13.27,0,0,1,13.26,13.26v55.23A3.67,3.67,0,0,1,161.08,126Z"/><path class="cls-1" d="M133.14,107.34a3.68,3.68,0,0,1,0-7.35,10.67,10.67,0,0,0,10.57-9.29l2.44-19a3.68,3.68,0,0,1,7.29.94l-2.45,19A18,18,0,0,1,133.14,107.34Z"/><path class="cls-1" d="M149.79,48.74a3.67,3.67,0,0,1-3.64-3.2l-2.44-19A10.57,10.57,0,0,0,141,20.69a3.67,3.67,0,1,1,5.43-5A17.86,17.86,0,0,1,151,25.56l2.45,19a3.69,3.69,0,0,1-3.18,4.11Z"/><path class="cls-1" d="M173.15,48.74l-.47,0a3.67,3.67,0,0,1-3.17-4.11l2.44-19a17.86,17.86,0,0,1,4.54-9.82,3.67,3.67,0,0,1,5.43,5,10.64,10.64,0,0,0-2.69,5.81l-2.44,19A3.67,3.67,0,0,1,173.15,48.74Z"/><path class="cls-1" d="M179.21,102.66a3.68,3.68,0,0,1-2.72-1.2A17.86,17.86,0,0,1,172,91.63l-2.44-19a3.67,3.67,0,1,1,7.28-.94l2.44,19a10.64,10.64,0,0,0,2.69,5.81,3.68,3.68,0,0,1-2.71,6.15Z"/><path class="cls-1" d="M176.43,124a3.63,3.63,0,0,1-1.65-.39,3.68,3.68,0,0,1-1.62-4.94l4.35-8.58a87.06,87.06,0,0,0,9.36-39.15V18.21a3.67,3.67,0,0,1,3.67-3.67h30.21v-9a3.68,3.68,0,0,1,7.35,0v12.7a3.67,3.67,0,0,1-3.67,3.68H194.22v49a94.28,94.28,0,0,1-10.16,42.47l-4.35,8.58A3.66,3.66,0,0,1,176.43,124Z"/><path class="cls-1" d="M257.82,21.89h-22a3.68,3.68,0,0,1,0-7.35h22a3.68,3.68,0,0,1,0,7.35Z"/><path class="cls-1" d="M224.43,89.23a3.67,3.67,0,0,1-3.68-3.67V71.45a3.68,3.68,0,0,1,3.68-3.68h20.94V39.66H224.43A3.68,3.68,0,0,1,220.75,36v-8.4a3.68,3.68,0,0,1,7.35,0v4.73h21A3.67,3.67,0,0,1,252.72,36V71.45a3.67,3.67,0,0,1-3.67,3.67h-21V85.56A3.67,3.67,0,0,1,224.43,89.23Z"/><path class="cls-1" d="M215.26,39.47H191.74a3.68,3.68,0,0,1,0-7.35h23.52a3.68,3.68,0,1,1,0,7.35Z"/><path class="cls-1" d="M215.26,75.8H191.74a3.67,3.67,0,0,1,0-7.34h23.52a3.67,3.67,0,1,1,0,7.34Z"/><path class="cls-1" d="M224.43,75.8a3.67,3.67,0,0,1-3.68-3.67V36a3.68,3.68,0,0,1,7.35,0V72.13A3.67,3.67,0,0,1,224.43,75.8Z"/><path class="cls-1" d="M257.82,57.67H196.6a3.68,3.68,0,1,1,0-7.35h61.22a3.68,3.68,0,0,1,0,7.35Z"/><path class="cls-1" d="M246.81,120.16H201.1a3.67,3.67,0,0,1-3.67-3.67V93a3.68,3.68,0,1,1,7.35,0v19.84h38.35V91.57H213.06a3.67,3.67,0,1,1,0-7.34h33.75a3.67,3.67,0,0,1,3.67,3.67v28.59A3.67,3.67,0,0,1,246.81,120.16Z"/><path class="cls-1" d="M481.9,52.12H453a3.69,3.69,0,1,1,0-7.37h25.26V6.29a3.69,3.69,0,0,1,7.37,0V48.43A3.69,3.69,0,0,1,481.9,52.12Z"/><path class="cls-1" d="M495,125.24a3.68,3.68,0,0,1-3.69-3.68V48.43A3.69,3.69,0,0,1,495,44.75h30.08a3.69,3.69,0,0,1,0,7.37h-26.4v69.44A3.68,3.68,0,0,1,495,125.24Z"/><path class="cls-1" d="M444.11,42.81a3.67,3.67,0,0,1-2.24-.76L428.4,31.72a19.37,19.37,0,0,1-7.54-15.27V9.13a3.68,3.68,0,1,1,7.36,0v7.32a11.92,11.92,0,0,0,4.66,9.42L446.35,36.2a3.69,3.69,0,0,1,.68,5.17A3.65,3.65,0,0,1,444.11,42.81Z"/><path class="cls-1" d="M436.8,70.85a3.61,3.61,0,0,1-2.24-.76L421.09,59.77a19.37,19.37,0,0,1-7.54-15.28V37.17a3.69,3.69,0,0,1,7.37,0v7.32a12,12,0,0,0,4.65,9.43L439,64.25a3.68,3.68,0,0,1-2.24,6.6Z"/><path class="cls-1" d="M417.23,117.33a3.68,3.68,0,0,1-2.39-6.48L441.22,88.3A12.08,12.08,0,0,0,446,78.74V71.42a3.68,3.68,0,1,1,7.36,0v7.32A19.36,19.36,0,0,1,445.86,94l-26.23,22.43A3.71,3.71,0,0,1,417.23,117.33Z"/><path class="cls-1" d="M340.77,44.13h-8.29a3.69,3.69,0,1,1,0-7.37h8.29a3.69,3.69,0,0,1,0,7.37Z"/><path class="cls-1" d="M317.43,35.84h-5.36a13.28,13.28,0,0,1-13.26-13.26V3.67a3.68,3.68,0,0,1,7.35,0V22.58a5.92,5.92,0,0,0,5.91,5.91h5.36a3.68,3.68,0,1,1,0,7.35Z"/><path class="cls-1" d="M300.76,124.17a3.67,3.67,0,0,1-3.68-3.67V44a5.92,5.92,0,0,0-5.91-5.91h-7.76a3.68,3.68,0,0,1,0-7.35h7.76A13.28,13.28,0,0,1,304.43,44V120.5A3.67,3.67,0,0,1,300.76,124.17Z"/><path class="cls-1" d="M273,81.14a3.67,3.67,0,0,1,0-7.34,10.68,10.68,0,0,0,10.57-9.3l2.44-19a3.68,3.68,0,0,1,7.29.94l-2.44,19A18,18,0,0,1,273,81.14Z"/><path class="cls-1" d="M317.44,76.46a3.64,3.64,0,0,1-2.72-1.2,17.86,17.86,0,0,1-4.54-9.83l-2.44-19a3.67,3.67,0,1,1,7.28-.94l2.44,19a10.57,10.57,0,0,0,2.69,5.81,3.67,3.67,0,0,1-.24,5.19A3.63,3.63,0,0,1,317.44,76.46Z"/><path class="cls-1" d="M330.17,97.6a3.68,3.68,0,0,1-3.68-3.68V15.21h-8.34a3.68,3.68,0,1,1,0-7.36h12a3.69,3.69,0,0,1,3.69,3.68V93.92A3.68,3.68,0,0,1,330.17,97.6Z"/><path class="cls-1" d="M351.92,127.85a3.68,3.68,0,0,1-3.68-3.68v-109H343a3.68,3.68,0,0,1,0-7.36h8.93a3.69,3.69,0,0,1,3.69,3.68V124.17A3.69,3.69,0,0,1,351.92,127.85Z"/><path class="cls-1" d="M340.77,71.53h-8.29a3.68,3.68,0,1,1,0-7.36h8.29a3.68,3.68,0,1,1,0,7.36Z"/><path class="cls-1" d="M314.41,106.13a3.68,3.68,0,0,1-1.14-7.19l33.94-11a3.68,3.68,0,0,1,2.27,7l-33.94,11A3.7,3.7,0,0,1,314.41,106.13Z"/><path class="cls-1" d="M368.73,125.49a3.68,3.68,0,0,1-3.68-3.68V26.37a3.69,3.69,0,0,1,7.37,0v95.44A3.68,3.68,0,0,1,368.73,125.49Z"/><path class="cls-1" d="M386.33,106.56H370.74a3.69,3.69,0,0,1,0-7.37h15.59a3.55,3.55,0,0,0,2.9-1.48,3.51,3.51,0,0,0,.49-3.21l-12-36.29a11,11,0,0,1,0-6.87l10.41-31.42a3.58,3.58,0,0,0-3.39-4.71H366.17a3.68,3.68,0,0,1,0-7.36h18.61a10.95,10.95,0,0,1,10.39,14.38L384.75,53.65a3.68,3.68,0,0,0,0,2.25l12,36.29a10.94,10.94,0,0,1-10.39,14.37Z"/><path class="cls-1" d="M117.23,23.05H54.33a3.67,3.67,0,0,1,0-7.34h62.9a3.67,3.67,0,1,1,0,7.34Z"/><path class="cls-1" d="M86.21,35.2a3.67,3.67,0,0,1-3.68-3.67V8.05a3.68,3.68,0,0,1,7.35,0V31.53A3.67,3.67,0,0,1,86.21,35.2Z"/><path class="cls-1" d="M38.31,35.2a3.67,3.67,0,0,1-3.67-3.67V23.05h-31a3.67,3.67,0,1,1,0-7.34H38.31A3.67,3.67,0,0,1,42,19.38V31.53A3.67,3.67,0,0,1,38.31,35.2Z"/><path class="cls-1" d="M6.94,123.47a3.65,3.65,0,0,1-1.13-.17,3.69,3.69,0,0,1-2.37-4.63l4.63-14.39A117.93,117.93,0,0,0,13.77,68V43.92a3.67,3.67,0,0,1,3.67-3.67H59.21v-10a3.67,3.67,0,1,1,7.34,0V43.92a3.67,3.67,0,0,1-3.67,3.68H21.11V68a125.48,125.48,0,0,1-6,38.5l-4.64,14.39A3.67,3.67,0,0,1,6.94,123.47Z"/><path class="cls-1" d="M115.49,47.16H74.84a3.67,3.67,0,1,1,0-7.34h40.65a3.67,3.67,0,1,1,0,7.34Z"/><path class="cls-1" d="M115.49,66H74.84a3.68,3.68,0,1,1,0-7.35h40.65a3.68,3.68,0,1,1,0,7.35Z"/><path class="cls-1" d="M90.18,87H45.55a3.67,3.67,0,0,1-3.67-3.67V51.91a3.68,3.68,0,0,1,7.35,0V79.63H86.5V51.91a3.68,3.68,0,0,1,7.35,0v31.4A3.67,3.67,0,0,1,90.18,87Z"/><path class="cls-1" d="M59.3,66H21a3.68,3.68,0,0,1,0-7.35H59.3a3.68,3.68,0,1,1,0,7.35Z"/><path class="cls-1" d="M55.53,123.47a3.67,3.67,0,0,1-3.67-3.67V94.9a3.68,3.68,0,0,1,7.35,0v24.9A3.67,3.67,0,0,1,55.53,123.47Z"/><path class="cls-1" d="M80.48,123.47a3.67,3.67,0,0,1-3.68-3.67V94.9a3.68,3.68,0,0,1,7.35,0v24.9A3.67,3.67,0,0,1,80.48,123.47Z"/><path class="cls-1" d="M108.76,123.47a3.67,3.67,0,0,1-3.68-3.67v-6.92a16.27,16.27,0,0,0-3.13-9.63l-4.5-6.19a3.68,3.68,0,0,1,6-4.32l4.49,6.19a23.55,23.55,0,0,1,4.54,13.95v6.92A3.67,3.67,0,0,1,108.76,123.47Z"/><path class="cls-1" d="M27.25,123.47a3.67,3.67,0,0,1-3.67-3.67v-6.92a23.55,23.55,0,0,1,4.54-13.95l4.49-6.19a3.68,3.68,0,0,1,6,4.32l-4.5,6.19a16.27,16.27,0,0,0-3.13,9.63v6.92A3.67,3.67,0,0,1,27.25,123.47Z"/></g></g></svg>