<svg xmlns="http://www.w3.org/2000/svg" viewBox="0 0 388.52 121.97"><defs><style>.cls-1{fill:#5dc0b8;}</style></defs><g id="Layer_2" data-name="Layer 2"><g id="Layer_1-2" data-name="Layer 1"><path class="cls-1" d="M359.19,23.76a3.55,3.55,0,0,1-2.51-6.06L361,13.35a13.77,13.77,0,0,0,4.06-9.8,3.55,3.55,0,1,1,7.1,0,20.83,20.83,0,0,1-6.14,14.82l-4.35,4.35A3.56,3.56,0,0,1,359.19,23.76Z"/><path class="cls-1" d="M334.33,23.76a3.58,3.58,0,0,1-2.51-1l-4.35-4.35a20.83,20.83,0,0,1-6.14-14.82,3.55,3.55,0,1,1,7.1,0,13.77,13.77,0,0,0,4.06,9.8l4.35,4.35a3.55,3.55,0,0,1-2.51,6.06Z"/><path class="cls-1" d="M312.81,57.15H302.09a12.83,12.83,0,0,1-12.81-12.81V5.56a3.55,3.55,0,0,1,7.1,0V44.34a5.71,5.71,0,0,0,5.71,5.71h10.72a3.55,3.55,0,1,1,0,7.1Z"/><path class="cls-1" d="M291.16,122a3.55,3.55,0,0,1-3.55-3.55V65.06a5.72,5.72,0,0,0-5.71-5.71h-7.49a3.55,3.55,0,1,1,0-7.09h7.49a12.82,12.82,0,0,1,12.81,12.8v53.36A3.55,3.55,0,0,1,291.16,122Z"/><path class="cls-1" d="M264.17,103.93a3.55,3.55,0,0,1,0-7.1,10.32,10.32,0,0,0,10.21-9l2.36-18.39a3.55,3.55,0,1,1,7,.91l-2.36,18.39A17.43,17.43,0,0,1,264.17,103.93Z"/><path class="cls-1" d="M280.25,47.32a3.55,3.55,0,0,1-3.51-3.1l-2.36-18.39a10.2,10.2,0,0,0-2.6-5.61A3.55,3.55,0,1,1,277,15.44a17.27,17.27,0,0,1,4.39,9.49l2.36,18.39a3.56,3.56,0,0,1-3.53,4Z"/><path class="cls-1" d="M302.83,47.32a3.56,3.56,0,0,1-3.53-4l2.36-18.39a17.27,17.27,0,0,1,4.39-9.49,3.55,3.55,0,1,1,5.24,4.78,10.22,10.22,0,0,0-2.59,5.61l-2.36,18.39A3.55,3.55,0,0,1,302.83,47.32Z"/><path class="cls-1" d="M308.67,99.41a3.53,3.53,0,0,1-2.62-1.16,17.3,17.3,0,0,1-4.39-9.5L299.3,70.37a3.55,3.55,0,1,1,7-.91l2.36,18.39a10.29,10.29,0,0,0,2.59,5.62,3.55,3.55,0,0,1-2.62,5.94Z"/><path class="cls-1" d="M347.93,80.45a3.54,3.54,0,0,1-3.55-3.55V38.16a5,5,0,0,0-5-5H316.89a3.55,3.55,0,0,1,0-7.1h22.46a12.14,12.14,0,0,1,12.13,12.13V76.9A3.54,3.54,0,0,1,347.93,80.45Z"/><path class="cls-1" d="M382.34,34.27h-23a3.55,3.55,0,0,1,0-7.1h23a3.55,3.55,0,1,1,0,7.1Z"/><path class="cls-1" d="M379.19,57.15H311.36a3.55,3.55,0,0,1,0-7.1h67.83a3.55,3.55,0,0,1,0,7.1Z"/><path class="cls-1" d="M385,80.45H314.73a3.55,3.55,0,1,1,0-7.09H385a3.55,3.55,0,1,1,0,7.09Z"/><path class="cls-1" d="M337.58,122a3.55,3.55,0,0,1-3.55-3.55V89.9a3.55,3.55,0,0,1,7.1,0v28.52A3.55,3.55,0,0,1,337.58,122Z"/><path class="cls-1" d="M355.89,122a3.55,3.55,0,0,1-3.55-3.55V89.9a3.55,3.55,0,1,1,7.1,0v28.52A3.55,3.55,0,0,1,355.89,122Z"/><path class="cls-1" d="M378.05,122a3.55,3.55,0,0,1-3.55-3.55V107.27a15.66,15.66,0,0,0-3-9.3l-4.35-6a3.55,3.55,0,0,1,5.75-4.17l4.34,6a22.74,22.74,0,0,1,4.38,13.48v11.15A3.55,3.55,0,0,1,378.05,122Z"/><path class="cls-1" d="M315.41,122a3.55,3.55,0,0,1-3.55-3.55V107.27a22.75,22.75,0,0,1,4.39-13.48l4.34-6A3.55,3.55,0,1,1,326.33,92L322,98a15.75,15.75,0,0,0-3,9.31v11.15A3.55,3.55,0,0,1,315.41,122Z"/><path class="cls-1" d="M30.41,119.91a3.54,3.54,0,0,1-3.55-3.54V102.72a3.55,3.55,0,0,1,7.1,0v13.65A3.54,3.54,0,0,1,30.41,119.91Z"/><path class="cls-1" d="M47,119.91a3.54,3.54,0,0,1-3.55-3.54v-1.16a10.32,10.32,0,0,0-2-6.11l-3.13-4.29a3.55,3.55,0,1,1,5.74-4.17l3.13,4.29a17.42,17.42,0,0,1,3.34,10.28v1.16A3.54,3.54,0,0,1,47,119.91Z"/><path class="cls-1" d="M14.47,119.91a3.54,3.54,0,0,1-3.55-3.54v-1.16a17.42,17.42,0,0,1,3.34-10.28l3.13-4.29a3.55,3.55,0,1,1,5.74,4.17L20,109.1a10.33,10.33,0,0,0-2,6.11v1.16A3.54,3.54,0,0,1,14.47,119.91Z"/><path class="cls-1" d="M116.76,21.32H52.49a3.55,3.55,0,1,1,0-7.09h64.27a3.55,3.55,0,1,1,0,7.09Z"/><path class="cls-1" d="M83.28,34.71a3.54,3.54,0,0,1-3.55-3.55V5.6a3.55,3.55,0,0,1,7.1,0V31.16A3.54,3.54,0,0,1,83.28,34.71Z"/><path class="cls-1" d="M103.72,52.28H14.65a3.55,3.55,0,0,1-3.55-3.55V31.16a3.54,3.54,0,0,1,3.55-3.54H36.43v-6.3H3.55a3.55,3.55,0,1,1,0-7.09H40a3.54,3.54,0,0,1,3.55,3.55V31.16A3.54,3.54,0,0,1,40,34.71H18.2V45.18h82V34.71H52.49a3.55,3.55,0,1,1,0-7.09h51.23a3.54,3.54,0,0,1,3.55,3.54V48.73A3.55,3.55,0,0,1,103.72,52.28Z"/><path class="cls-1" d="M83.28,49.83a3.55,3.55,0,0,1-3.55-3.55v-13a3.55,3.55,0,0,1,7.1,0v13A3.55,3.55,0,0,1,83.28,49.83Z"/><path class="cls-1" d="M40,49.83a3.55,3.55,0,0,1-3.55-3.55v-13a3.55,3.55,0,0,1,7.1,0v13A3.55,3.55,0,0,1,40,49.83Z"/><path class="cls-1" d="M25.52,77a3.58,3.58,0,0,1-1.78-.48L15.6,71.76a7.89,7.89,0,0,1-1-12.93l6.94-4.91a3.55,3.55,0,1,1,4.09,5.8l-6.74,4.76a1,1,0,0,0-.1.53.78.78,0,0,0,.39.61l8.14,4.74A3.55,3.55,0,0,1,25.52,77Z"/><path class="cls-1" d="M45.52,94.77H17.32A7.88,7.88,0,0,1,12,81.1l25.55-23a3.55,3.55,0,1,1,4.74,5.28l-25.51,23a.72.72,0,0,0-.17.84.74.74,0,0,0,.73.49h28.2a3.55,3.55,0,0,1,0,7.1Z"/><path class="cls-1" d="M49.81,99a3.56,3.56,0,0,1-3.17-1.94L36.82,77.72a3.54,3.54,0,1,1,6.32-3.21L53,93.85A3.54,3.54,0,0,1,49.81,99Z"/><path class="cls-1" d="M49.81,77a3.55,3.55,0,0,1-2.49-6.08L65.17,53.36a3.55,3.55,0,0,1,5,5.06L52.29,76A3.53,3.53,0,0,1,49.81,77Z"/><path class="cls-1" d="M116.76,119.91H69a9.75,9.75,0,0,1-9.74-9.74v-46a3.55,3.55,0,0,1,7.1,0v46A2.65,2.65,0,0,0,69,112.82h47.72a3.55,3.55,0,1,1,0,7.09Z"/><path class="cls-1" d="M112.8,101.65H62.85a3.55,3.55,0,1,1,0-7.09H112.8a3.55,3.55,0,1,1,0,7.09Z"/><path class="cls-1" d="M112.8,84.82H62.85a3.55,3.55,0,0,1,0-7.1H112.8a3.55,3.55,0,0,1,0,7.1Z"/><path class="cls-1" d="M112.8,68.55H62.85a3.55,3.55,0,0,1,0-7.1H112.8a3.55,3.55,0,0,1,0,7.1Z"/><path class="cls-1" d="M89.8,116.88a3.54,3.54,0,0,1-3.54-3.55V62.08A3.56,3.56,0,0,1,87,59.89l4.83-6.19a3.55,3.55,0,0,1,5.6,4.37L93.35,63.3v50A3.55,3.55,0,0,1,89.8,116.88Z"/><path class="cls-1" d="M245.71,22.11H184.36a3.55,3.55,0,0,1,0-7.1h61.35a3.55,3.55,0,0,1,0,7.1Z"/><path class="cls-1" d="M212.23,33.09a3.55,3.55,0,0,1-3.55-3.55V6.39a3.55,3.55,0,0,1,7.1,0V29.54A3.55,3.55,0,0,1,212.23,33.09Z"/><path class="cls-1" d="M171.5,33.09A3.55,3.55,0,0,1,168,29.54V22.11H135.07a3.55,3.55,0,1,1,0-7.1H171.5a3.55,3.55,0,0,1,3.55,3.55v11A3.55,3.55,0,0,1,171.5,33.09Z"/><path class="cls-1" d="M229,121.1a3.55,3.55,0,0,1,0-7.1,5,5,0,0,0,5-5V48.09a5,5,0,0,0-5-5H153.21a3.55,3.55,0,0,1,0-7.1H229a12.08,12.08,0,0,1,12.06,12.07V109A12.08,12.08,0,0,1,229,121.1Z"/><path class="cls-1" d="M217.44,53.19H160.56a3.55,3.55,0,0,1,0-7.1h56.88a3.55,3.55,0,1,1,0,7.1Z"/><path class="cls-1" d="M211.72,77.1H166.29a8.19,8.19,0,0,1-8.19-8.19V64.18A8.19,8.19,0,0,1,166.29,56h45.43a8.19,8.19,0,0,1,8.18,8.18v4.73A8.19,8.19,0,0,1,211.72,77.1Zm-45.43-14a1.09,1.09,0,0,0-1.09,1.09v4.73A1.09,1.09,0,0,0,166.29,70h45.43a1.08,1.08,0,0,0,1.08-1.09V64.18a1.08,1.08,0,0,0-1.08-1.09Z"/><path class="cls-1" d="M218.78,113.91H159.34a8.2,8.2,0,0,1-8.19-8.18V88.09a8.2,8.2,0,0,1,8.19-8.18h59.44A8.19,8.19,0,0,1,227,88.09v17.64A8.19,8.19,0,0,1,218.78,113.91ZM159.34,87a1.08,1.08,0,0,0-1.09,1.08v17.64a1.08,1.08,0,0,0,1.09,1.08h59.44a1.08,1.08,0,0,0,1.09-1.08V88.09A1.08,1.08,0,0,0,218.78,87Z"/><path class="cls-1" d="M177,100.46H154.58a3.55,3.55,0,0,1,0-7.1H177a4.1,4.1,0,0,0,4.09-4.09V83.46a3.55,3.55,0,1,1,7.1,0v5.81A11.2,11.2,0,0,1,177,100.46Z"/><path class="cls-1" d="M191.4,113.91a3.55,3.55,0,0,1-3.55-3.55v-5.81a11.21,11.21,0,0,1,11.2-11.19h22.38a3.55,3.55,0,0,1,0,7.1H199.05a4.1,4.1,0,0,0-4.1,4.09v5.81A3.55,3.55,0,0,1,191.4,113.91Z"/><path class="cls-1" d="M138.46,59.7h-.73a3.55,3.55,0,1,1,0-7.1h.73a9.48,9.48,0,0,0,9.47-9.47V29.54a3.55,3.55,0,0,1,7.1,0V43.13A16.59,16.59,0,0,1,138.46,59.7Z"/></g></g></svg>