<svg xmlns="http://www.w3.org/2000/svg" viewBox="0 0 760.95 121.97"><defs><style>.cls-1{fill:#6caedb;}</style></defs><g id="Layer_2" data-name="Layer 2"><g id="Layer_1-2" data-name="Layer 1"><path class="cls-1" d="M731.82,24.44a3.49,3.49,0,0,1-2.49-1,3.52,3.52,0,0,1,0-5l4.32-4.32a13.7,13.7,0,0,0,4-9.73,3.53,3.53,0,0,1,7.05,0,20.65,20.65,0,0,1-6.1,14.71l-4.32,4.33A3.5,3.5,0,0,1,731.82,24.44Z"/><path class="cls-1" d="M707.14,24.44a3.51,3.51,0,0,1-2.5-1l-4.32-4.32a20.68,20.68,0,0,1-6.09-14.72,3.53,3.53,0,0,1,7,0,13.66,13.66,0,0,0,4,9.73l4.32,4.32a3.54,3.54,0,0,1,0,5A3.5,3.5,0,0,1,707.14,24.44Z"/><path class="cls-1" d="M685.76,57.6H675.12A12.73,12.73,0,0,1,662.4,44.88V6.36a3.53,3.53,0,0,1,7.05,0V44.88a5.67,5.67,0,0,0,5.67,5.67h10.64a3.53,3.53,0,1,1,0,7.05Z"/><path class="cls-1" d="M664.26,122a3.53,3.53,0,0,1-3.52-3.53v-53a5.68,5.68,0,0,0-5.67-5.67h-7.45a3.53,3.53,0,0,1,0-7h7.45a12.74,12.74,0,0,1,12.72,12.72v53A3.53,3.53,0,0,1,664.26,122Z"/><path class="cls-1" d="M637.46,104.06a3.53,3.53,0,1,1,0-7,10.24,10.24,0,0,0,10.13-8.92l2.35-18.27a3.52,3.52,0,0,1,7,.9L654.59,89A17.32,17.32,0,0,1,637.46,104.06Z"/><path class="cls-1" d="M653.43,47.84a3.52,3.52,0,0,1-3.49-3.08L647.59,26.5A10.07,10.07,0,0,0,645,20.92a3.53,3.53,0,1,1,5.21-4.75,17.26,17.26,0,0,1,4.36,9.43l2.34,18.26a3.53,3.53,0,0,1-3,4A3.4,3.4,0,0,1,653.43,47.84Z"/><path class="cls-1" d="M675.85,47.84a3.53,3.53,0,0,1-3.5-4l2.34-18.26A17.24,17.24,0,0,1,679,16.17a3.53,3.53,0,0,1,5.22,4.75,10.15,10.15,0,0,0-2.58,5.58l-2.34,18.26A3.53,3.53,0,0,1,675.85,47.84Z"/><path class="cls-1" d="M681.65,99.56A3.54,3.54,0,0,1,679,98.41,17.18,17.18,0,0,1,674.69,89l-2.34-18.27a3.52,3.52,0,0,1,7-.9l2.34,18.27a10.12,10.12,0,0,0,2.58,5.57,3.53,3.53,0,0,1-.24,5A3.47,3.47,0,0,1,681.65,99.56Z"/><path class="cls-1" d="M720.64,80.74a3.52,3.52,0,0,1-3.53-3.52V38.75a5,5,0,0,0-5-5h-22.3a3.52,3.52,0,1,1,0-7h22.3a12.06,12.06,0,0,1,12,12.05V77.22A3.52,3.52,0,0,1,720.64,80.74Z"/><path class="cls-1" d="M754.81,34.88H732a3.53,3.53,0,0,1,0-7.05h22.86a3.53,3.53,0,1,1,0,7.05Z"/><path class="cls-1" d="M751.68,57.6H684.32a3.53,3.53,0,0,1,0-7.05h67.36a3.53,3.53,0,0,1,0,7.05Z"/><path class="cls-1" d="M757.42,80.74H687.66a3.52,3.52,0,1,1,0-7h69.76a3.52,3.52,0,1,1,0,7Z"/><path class="cls-1" d="M710.36,122a3.53,3.53,0,0,1-3.53-3.53V90.12a3.53,3.53,0,0,1,7,0v28.32A3.53,3.53,0,0,1,710.36,122Z"/><path class="cls-1" d="M728.54,122a3.53,3.53,0,0,1-3.53-3.53V90.12a3.53,3.53,0,0,1,7,0v28.32A3.52,3.52,0,0,1,728.54,122Z"/><path class="cls-1" d="M750.55,122a3.53,3.53,0,0,1-3.52-3.53V107.38a15.59,15.59,0,0,0-3-9.25l-4.31-5.94a3.52,3.52,0,1,1,5.7-4.14L749.72,94a22.59,22.59,0,0,1,4.36,13.39v11.06A3.53,3.53,0,0,1,750.55,122Z"/><path class="cls-1" d="M688.34,122a3.53,3.53,0,0,1-3.52-3.53V107.38A22.65,22.65,0,0,1,689.17,94l4.32-5.94a3.52,3.52,0,0,1,5.7,4.14l-4.32,5.94a15.65,15.65,0,0,0-3,9.25v11.06A3.53,3.53,0,0,1,688.34,122Z"/><path class="cls-1" d="M409.69,117.05a3.52,3.52,0,0,1-3.52-3.53V100a3.53,3.53,0,0,1,7.05,0v13.55A3.53,3.53,0,0,1,409.69,117.05Z"/><path class="cls-1" d="M426.2,117.05a3.53,3.53,0,0,1-3.53-3.53v-1.15a10.23,10.23,0,0,0-2-6.06L417.6,102a3.52,3.52,0,1,1,5.7-4.14l3.1,4.27a17.23,17.23,0,0,1,3.32,10.2v1.15A3.53,3.53,0,0,1,426.2,117.05Z"/><path class="cls-1" d="M393.87,117.05a3.53,3.53,0,0,1-3.53-3.53v-1.15a17.23,17.23,0,0,1,3.32-10.2l3.1-4.27a3.52,3.52,0,0,1,5.7,4.14l-3.1,4.27a10.23,10.23,0,0,0-2,6.06v1.15A3.53,3.53,0,0,1,393.87,117.05Z"/><path class="cls-1" d="M495.44,19.14H431.62a3.53,3.53,0,1,1,0-7h63.82a3.53,3.53,0,1,1,0,7.05Z"/><path class="cls-1" d="M462.2,32.43a3.52,3.52,0,0,1-3.53-3.52V3.52a3.53,3.53,0,0,1,7.05,0V28.91A3.51,3.51,0,0,1,462.2,32.43Z"/><path class="cls-1" d="M482.49,49.88H394a3.52,3.52,0,0,1-3.52-3.52V28.91A3.51,3.51,0,0,1,394,25.39h21.63V19.14H383a3.53,3.53,0,1,1,0-7H419.2a3.53,3.53,0,0,1,3.52,3.52v13.3a3.52,3.52,0,0,1-3.52,3.52H397.56v10.4H479V32.43H431.62a3.52,3.52,0,1,1,0-7h50.87A3.52,3.52,0,0,1,486,28.91V46.36A3.53,3.53,0,0,1,482.49,49.88Z"/><path class="cls-1" d="M462.2,47.45a3.53,3.53,0,0,1-3.53-3.53V31a3.53,3.53,0,0,1,7.05,0V43.92A3.52,3.52,0,0,1,462.2,47.45Z"/><path class="cls-1" d="M419.2,47.45a3.53,3.53,0,0,1-3.53-3.53V31a3.53,3.53,0,0,1,7.05,0V43.92A3.53,3.53,0,0,1,419.2,47.45Z"/><path class="cls-1" d="M404.84,74.41a3.58,3.58,0,0,1-1.78-.48L395,69.22a7.84,7.84,0,0,1-1-12.84l6.9-4.87a3.52,3.52,0,0,1,4.06,5.76L398.24,62a.84.84,0,0,0-.09.52.74.74,0,0,0,.38.61l8.08,4.71a3.52,3.52,0,0,1-1.77,6.57Z"/><path class="cls-1" d="M424.7,92.08h-28a7.82,7.82,0,0,1-5.3-13.58l25.37-22.83a3.52,3.52,0,1,1,4.71,5.24l-25.34,22.8a.7.7,0,0,0-.16.82.72.72,0,0,0,.72.5h28a3.53,3.53,0,0,1,0,7Z"/><path class="cls-1" d="M429,96.28a3.52,3.52,0,0,1-3.15-1.93l-9.75-19.21A3.52,3.52,0,0,1,422.34,72l9.76,19.21a3.52,3.52,0,0,1-1.55,4.74A3.48,3.48,0,0,1,429,96.28Z"/><path class="cls-1" d="M429,74.41a3.52,3.52,0,0,1-2.47-6L444.21,51a3.53,3.53,0,0,1,4.94,5L431.43,73.4A3.54,3.54,0,0,1,429,74.41Z"/><path class="cls-1" d="M495.44,117.05H448.06a9.69,9.69,0,0,1-9.68-9.68V61.71a3.53,3.53,0,0,1,7.05,0v45.66a2.63,2.63,0,0,0,2.63,2.63h47.38a3.53,3.53,0,1,1,0,7Z"/><path class="cls-1" d="M491.51,98.91h-49.6a3.53,3.53,0,1,1,0-7h49.6a3.53,3.53,0,1,1,0,7Z"/><path class="cls-1" d="M491.51,82.2h-49.6a3.53,3.53,0,1,1,0-7h49.6a3.53,3.53,0,1,1,0,7Z"/><path class="cls-1" d="M491.51,66h-49.6a3.53,3.53,0,1,1,0-7.05h49.6a3.53,3.53,0,1,1,0,7.05Z"/><path class="cls-1" d="M468.68,114a3.53,3.53,0,0,1-3.53-3.52V59.61a3.49,3.49,0,0,1,.75-2.17l4.8-6.15a3.53,3.53,0,0,1,5.56,4.35l-4.06,5.18v49.69A3.53,3.53,0,0,1,468.68,114Z"/><path class="cls-1" d="M619.57,19.92H558.65a3.53,3.53,0,1,1,0-7.05h60.92a3.53,3.53,0,1,1,0,7.05Z"/><path class="cls-1" d="M586.33,30.82a3.52,3.52,0,0,1-3.52-3.53v-23a3.52,3.52,0,1,1,7,0v23A3.52,3.52,0,0,1,586.33,30.82Z"/><path class="cls-1" d="M545.88,30.82a3.52,3.52,0,0,1-3.52-3.53V19.92H509.7a3.53,3.53,0,0,1,0-7.05h36.18a3.52,3.52,0,0,1,3.52,3.53V27.29A3.52,3.52,0,0,1,545.88,30.82Z"/><path class="cls-1" d="M603,116.26a3.53,3.53,0,1,1,0-7.05,4.93,4.93,0,0,0,4.93-4.93V45.72A4.93,4.93,0,0,0,603,40.79H527.72a3.53,3.53,0,1,1,0-7H603a12,12,0,0,1,12,12v58.56A12,12,0,0,1,603,116.26Z"/><path class="cls-1" d="M591.5,50.78H535a3.53,3.53,0,1,1,0-7.05H591.5a3.53,3.53,0,1,1,0,7.05Z"/><path class="cls-1" d="M585.82,74.53H540.7a8.14,8.14,0,0,1-8.13-8.13V61.7a8.14,8.14,0,0,1,8.13-8.13h45.12a8.13,8.13,0,0,1,8.12,8.13v4.7A8.13,8.13,0,0,1,585.82,74.53ZM540.7,60.62a1.08,1.08,0,0,0-1.08,1.08v4.7a1.08,1.08,0,0,0,1.08,1.08h45.12a1.08,1.08,0,0,0,1.08-1.08V61.7a1.08,1.08,0,0,0-1.08-1.08Z"/><path class="cls-1" d="M592.83,111.09h-59a8.14,8.14,0,0,1-8.13-8.13V85.45a8.14,8.14,0,0,1,8.13-8.13h59A8.14,8.14,0,0,1,601,85.45V103A8.14,8.14,0,0,1,592.83,111.09Zm-59-26.72a1.08,1.08,0,0,0-1.08,1.08V103A1.09,1.09,0,0,0,533.8,104h59a1.08,1.08,0,0,0,1.08-1.08V85.45a1.08,1.08,0,0,0-1.08-1.08Z"/><path class="cls-1" d="M551.31,97.73H529.08a3.53,3.53,0,0,1,0-7h22.23a4.07,4.07,0,0,0,4.06-4.07V80.84a3.53,3.53,0,0,1,7,0v5.77A11.13,11.13,0,0,1,551.31,97.73Z"/><path class="cls-1" d="M565.65,111.09a3.53,3.53,0,0,1-3.53-3.53V101.8a11.13,11.13,0,0,1,11.12-11.12h22.22a3.53,3.53,0,1,1,0,7H573.24a4.07,4.07,0,0,0-4.07,4.07v5.76A3.53,3.53,0,0,1,565.65,111.09Z"/><path class="cls-1" d="M513.07,57.25h-.73a3.53,3.53,0,1,1,0-7h.73a9.42,9.42,0,0,0,9.41-9.41V27.29a3.53,3.53,0,0,1,7,0v13.5A16.48,16.48,0,0,1,513.07,57.25Z"/><path class="cls-1" d="M57.82,62.14H12.54a3.53,3.53,0,0,1,0-7H57.82a3.53,3.53,0,0,1,0,7Z"/><path class="cls-1" d="M108.48,62.14H70.15a3.53,3.53,0,1,1,0-7h38.33a3.53,3.53,0,0,1,0,7Z"/><path class="cls-1" d="M116.06,81.82H3.52a3.53,3.53,0,0,1,0-7H116.06a3.53,3.53,0,1,1,0,7Z"/><path class="cls-1" d="M72.52,36.41a3.52,3.52,0,0,1-2.3-6.2l4.33-3.71a10.25,10.25,0,0,0,3.83-7.8,3.53,3.53,0,0,1,7.05,0,17.47,17.47,0,0,1-6.3,13.16l-4.32,3.7A3.5,3.5,0,0,1,72.52,36.41Z"/><path class="cls-1" d="M47.83,36.41a3.52,3.52,0,0,1-2.29-.85l-4.32-3.7A17.46,17.46,0,0,1,34.93,18.7a3.53,3.53,0,0,1,7,0,10.25,10.25,0,0,0,3.83,7.8l4.32,3.71a3.52,3.52,0,0,1-2.3,6.2Z"/><path class="cls-1" d="M43.23,114.91a3.53,3.53,0,0,1-3.52-3.53V92.09a3.53,3.53,0,1,1,7,0v19.29A3.53,3.53,0,0,1,43.23,114.91Z"/><path class="cls-1" d="M76.36,114.91a3.53,3.53,0,0,1-3.53-3.53V92.09a3.53,3.53,0,1,1,7,0v19.29A3.53,3.53,0,0,1,76.36,114.91Z"/><path class="cls-1" d="M108.45,114.91a3.53,3.53,0,0,1-3.52-3.53v-2a15.56,15.56,0,0,0-3-9.24l-4.31-5.94a3.52,3.52,0,0,1,5.7-4.14L107.62,96A22.61,22.61,0,0,1,112,109.34v2A3.53,3.53,0,0,1,108.45,114.91Z"/><path class="cls-1" d="M11.14,114.91a3.53,3.53,0,0,1-3.53-3.53v-2A22.67,22.67,0,0,1,12,96L16.28,90A3.52,3.52,0,0,1,22,94.16l-4.31,5.93a15.62,15.62,0,0,0-3,9.25v2A3.53,3.53,0,0,1,11.14,114.91Z"/><path class="cls-1" d="M95.21,43.68H69.15a3.53,3.53,0,0,1,0-7H95.21a5,5,0,0,0,5-5V15h-69a3.53,3.53,0,0,1,0-7h72.53a3.51,3.51,0,0,1,3.52,3.52v20.2A12.06,12.06,0,0,1,95.21,43.68Z"/><path class="cls-1" d="M59.79,81.82a3.53,3.53,0,0,1-3.52-3.53V48.68a5,5,0,0,0-5-5H16.61a3.52,3.52,0,0,1-3.52-3.52V11.43a3.53,3.53,0,0,1,7.05,0v25.2H51.27a12.07,12.07,0,0,1,12,12V78.29A3.53,3.53,0,0,1,59.79,81.82Z"/><path class="cls-1" d="M178.7,36.23H168.05a12.74,12.74,0,0,1-12.72-12.72V5.37a3.53,3.53,0,1,1,7,0V23.51a5.68,5.68,0,0,0,5.67,5.67H178.7a3.53,3.53,0,0,1,0,7Z"/><path class="cls-1" d="M157.2,121a3.53,3.53,0,0,1-3.53-3.52V44.09A5.68,5.68,0,0,0,148,38.41h-7.44a3.52,3.52,0,1,1,0-7H148a12.73,12.73,0,0,1,12.72,12.72v73.36A3.53,3.53,0,0,1,157.2,121Z"/><path class="cls-1" d="M130.58,79.69a3.53,3.53,0,0,1,0-7,10.24,10.24,0,0,0,10.14-8.92l2.34-18.26a3.52,3.52,0,1,1,7,.9l-2.34,18.26A17.31,17.31,0,0,1,130.58,79.69Z"/><path class="cls-1" d="M173.2,75.2a3.54,3.54,0,0,1-2.61-1.15,17.18,17.18,0,0,1-4.35-9.43L163.9,46.36a3.52,3.52,0,1,1,7-.9l2.34,18.26a10.21,10.21,0,0,0,2.57,5.58,3.52,3.52,0,0,1-.23,5A3.47,3.47,0,0,1,173.2,75.2Z"/><path class="cls-1" d="M189.24,68.16a3.51,3.51,0,0,1-3.52-3.52V32.7a3.52,3.52,0,1,1,7,0V64.64A3.51,3.51,0,0,1,189.24,68.16Z"/><path class="cls-1" d="M239.87,68.16a3.52,3.52,0,0,1-3.36-2.47L223.34,23.51A5,5,0,0,0,218.56,20H191.22a3.53,3.53,0,1,1,0-7h27.34a12,12,0,0,1,11.5,8.46l13.18,42.19A3.52,3.52,0,0,1,240.92,68,3.43,3.43,0,0,1,239.87,68.16Z"/><path class="cls-1" d="M198.31,114a13.19,13.19,0,0,1-11.55-19.5l24.88-45.66a3.52,3.52,0,0,1,6.19,3.37L192.94,97.87a6.14,6.14,0,0,0,6.2,9l36.06-4.77a3.55,3.55,0,0,1,4,3,3.51,3.51,0,0,1-3,4l-36.06,4.77A14.68,14.68,0,0,1,198.31,114Z"/><path class="cls-1" d="M242.45,115.85a3.53,3.53,0,0,1-3.15-1.93L223.75,83.31a3.52,3.52,0,1,1,6.28-3.2l15.56,30.62a3.52,3.52,0,0,1-3.14,5.12Z"/><path class="cls-1" d="M265.61,45.53A3.53,3.53,0,0,1,262.09,42V22.36a3.53,3.53,0,0,1,3.52-3.53h45V12.88H270.81a3.52,3.52,0,1,1,0-7h43.3a3.52,3.52,0,0,1,3.53,3.52v13a3.53,3.53,0,0,1-3.53,3.52h-45V42A3.53,3.53,0,0,1,265.61,45.53Z"/><path class="cls-1" d="M357.59,12.88H324.85a3.52,3.52,0,1,1,0-7h32.74a3.52,3.52,0,1,1,0,7Z"/><path class="cls-1" d="M361.81,45.53A3.53,3.53,0,0,1,358.29,42V25.58H324.85a3.53,3.53,0,1,1,0-7h37a3.53,3.53,0,0,1,3.53,3.52V42A3.53,3.53,0,0,1,361.81,45.53Z"/><path class="cls-1" d="M301.2,38.27H278.53a3.53,3.53,0,1,1,0-7.05H301.2a3.53,3.53,0,0,1,0,7.05Z"/><path class="cls-1" d="M301.2,50.66H278.53a3.53,3.53,0,1,1,0-7H301.2a3.53,3.53,0,0,1,0,7Z"/><path class="cls-1" d="M350.46,38.27H327.79a3.53,3.53,0,1,1,0-7.05h22.67a3.53,3.53,0,0,1,0,7.05Z"/><path class="cls-1" d="M350.46,50.66H327.79a3.53,3.53,0,1,1,0-7h22.67a3.53,3.53,0,0,1,0,7Z"/><path class="cls-1" d="M314.11,54.89a3.52,3.52,0,0,1-3.52-3.52V33.54a3.53,3.53,0,1,1,7.05,0V51.37A3.52,3.52,0,0,1,314.11,54.89Z"/><path class="cls-1" d="M284,114.73a3.51,3.51,0,0,1-3.52-3.52V78.77h-12A3.53,3.53,0,0,1,265,75.24V61.34a3.53,3.53,0,0,1,7,0V71.72h12a3.53,3.53,0,0,1,3.53,3.52v36A3.52,3.52,0,0,1,284,114.73Z"/><path class="cls-1" d="M301.2,79.07h-7.48a3.53,3.53,0,1,1,0-7h3.95V61.54H278.53a3.53,3.53,0,1,1,0-7H301.2A3.53,3.53,0,0,1,304.72,58V75.55A3.53,3.53,0,0,1,301.2,79.07Z"/><path class="cls-1" d="M306.71,117H269.82a3.53,3.53,0,0,1-3.52-3.52V86.27a3.53,3.53,0,0,1,7.05,0v23.66h33.36a3.53,3.53,0,0,1,0,7Z"/><path class="cls-1" d="M304.32,95.84H291.76a3.53,3.53,0,1,1,0-7h12.56a3.53,3.53,0,0,1,0,7Z"/><path class="cls-1" d="M312.49,92.26a3.53,3.53,0,0,1-1.91-6.49l35.06-22.63h-28V75.55a3.53,3.53,0,0,1-7.05,0V59.62a3.52,3.52,0,0,1,3.52-3.52h43.48a3.52,3.52,0,0,1,1.91,6.48L314.4,91.69A3.44,3.44,0,0,1,312.49,92.26Z"/><path class="cls-1" d="M367.32,92.26a3.38,3.38,0,0,1-1.47-.33c-17.11-7.85-43-19.73-44.3-20.26a3.55,3.55,0,0,1-2-4.5A3.48,3.48,0,0,1,324,65.05c.24.08.79.26,44.82,20.48a3.52,3.52,0,0,1-1.47,6.73Z"/><path class="cls-1" d="M357.59,117H322.86a3.52,3.52,0,0,1-3.52-3.52V94.11a3.52,3.52,0,0,1,3.52-3.52h34.73a3.53,3.53,0,0,1,3.53,3.52v19.35A3.53,3.53,0,0,1,357.59,117Zm-31.21-7h27.69V97.64H326.38Z"/></g></g></svg>