<svg xmlns="http://www.w3.org/2000/svg" viewBox="0 0 398.79 121.97"><defs><style>.cls-1{fill:#c677ad;}</style></defs><g id="Layer_2" data-name="Layer 2"><g id="Layer_1-2" data-name="Layer 1"><path class="cls-1" d="M369.77,24.84a3.51,3.51,0,0,1-2.48-6l4.3-4.31a13.62,13.62,0,0,0,4-9.69,3.51,3.51,0,0,1,7,0,20.58,20.58,0,0,1-6.07,14.65l-4.31,4.31A3.51,3.51,0,0,1,369.77,24.84Z"/><path class="cls-1" d="M345.19,24.84a3.51,3.51,0,0,1-2.48-1l-4.31-4.3a20.62,20.62,0,0,1-6.07-14.66,3.52,3.52,0,0,1,7,0,13.61,13.61,0,0,0,4,9.69l4.3,4.3a3.52,3.52,0,0,1-2.48,6Z"/><path class="cls-1" d="M323.91,57.86H313.3a12.69,12.69,0,0,1-12.67-12.67V6.83a3.51,3.51,0,1,1,7,0V45.19a5.66,5.66,0,0,0,5.65,5.65h10.61a3.51,3.51,0,0,1,0,7Z"/><path class="cls-1" d="M302.49,122a3.51,3.51,0,0,1-3.51-3.51V65.69A5.65,5.65,0,0,0,293.33,60h-7.41a3.51,3.51,0,1,1,0-7h7.41A12.68,12.68,0,0,1,306,65.69v52.77A3.51,3.51,0,0,1,302.49,122Z"/><path class="cls-1" d="M275.8,104.13a3.51,3.51,0,1,1,0-7,10.2,10.2,0,0,0,10.09-8.88L288.23,70a3.51,3.51,0,1,1,7,.89l-2.33,18.19A17.24,17.24,0,0,1,275.8,104.13Z"/><path class="cls-1" d="M291.7,48.14a3.5,3.5,0,0,1-3.47-3.06l-2.34-18.19a10.07,10.07,0,0,0-2.56-5.56,3.51,3.51,0,0,1,5.19-4.73A17.25,17.25,0,0,1,292.86,26l2.33,18.19a3.51,3.51,0,0,1-3,3.93A3.4,3.4,0,0,1,291.7,48.14Z"/><path class="cls-1" d="M314,48.14l-.45,0a3.52,3.52,0,0,1-3-3.93L312.88,26a17.17,17.17,0,0,1,4.33-9.39,3.51,3.51,0,0,1,5.2,4.73,10.08,10.08,0,0,0-2.57,5.56l-2.33,18.19A3.51,3.51,0,0,1,314,48.14Z"/><path class="cls-1" d="M319.81,99.65a3.52,3.52,0,0,1-2.6-1.14,17.17,17.17,0,0,1-4.33-9.39l-2.34-18.19a3.51,3.51,0,1,1,7-.89l2.33,18.19a10.08,10.08,0,0,0,2.57,5.55,3.51,3.51,0,0,1-2.6,5.87Z"/><path class="cls-1" d="M358.64,80.91a3.51,3.51,0,0,1-3.51-3.51V39.08a5,5,0,0,0-5-5H327.94a3.51,3.51,0,1,1,0-7h22.21a12,12,0,0,1,12,12V77.4A3.51,3.51,0,0,1,358.64,80.91Z"/><path class="cls-1" d="M392.67,35.23H369.91a3.51,3.51,0,0,1,0-7h22.76a3.51,3.51,0,0,1,0,7Z"/><path class="cls-1" d="M389.55,57.86H322.47a3.51,3.51,0,0,1,0-7h67.08a3.51,3.51,0,0,1,0,7Z"/><path class="cls-1" d="M395.28,80.91H325.8a3.51,3.51,0,1,1,0-7h69.48a3.51,3.51,0,1,1,0,7Z"/><path class="cls-1" d="M348.4,122a3.51,3.51,0,0,1-3.51-3.51V90.25a3.51,3.51,0,0,1,7,0v28.21A3.51,3.51,0,0,1,348.4,122Z"/><path class="cls-1" d="M366.51,122a3.51,3.51,0,0,1-3.51-3.51V90.25a3.51,3.51,0,0,1,7,0v28.21A3.51,3.51,0,0,1,366.51,122Z"/><path class="cls-1" d="M388.43,122a3.51,3.51,0,0,1-3.51-3.51v-11a15.54,15.54,0,0,0-3-9.2l-4.3-5.92a3.51,3.51,0,1,1,5.68-4.12l4.3,5.91a22.56,22.56,0,0,1,4.33,13.33v11A3.51,3.51,0,0,1,388.43,122Z"/><path class="cls-1" d="M326.48,122a3.51,3.51,0,0,1-3.51-3.51v-11A22.56,22.56,0,0,1,327.3,94.1l4.3-5.91a3.51,3.51,0,0,1,5.68,4.12L333,98.23a15.54,15.54,0,0,0-3,9.2v11A3.51,3.51,0,0,1,326.48,122Z"/><path class="cls-1" d="M116.4,19.06H55.73a3.51,3.51,0,1,1,0-7H116.4a3.51,3.51,0,0,1,0,7Z"/><path class="cls-1" d="M83.3,29.91a3.51,3.51,0,0,1-3.51-3.51V3.51a3.51,3.51,0,0,1,7,0V26.4A3.51,3.51,0,0,1,83.3,29.91Z"/><path class="cls-1" d="M43,29.91A3.51,3.51,0,0,1,39.5,26.4V19.06H7a3.51,3.51,0,0,1,0-7H43a3.51,3.51,0,0,1,3.51,3.51V26.4A3.51,3.51,0,0,1,43,29.91Z"/><path class="cls-1" d="M36.83,117.25H34.21a3.51,3.51,0,0,1,0-7h2.62A25.35,25.35,0,0,0,62.15,84.9V49.85a5,5,0,0,0-5-5H14.33a3.51,3.51,0,1,1,0-7H57.17a12,12,0,0,1,12,12V84.9A32.38,32.38,0,0,1,36.83,117.25Z"/><path class="cls-1" d="M110.74,44.87H77.43a3.51,3.51,0,0,1,0-7h33.31a3.51,3.51,0,1,1,0,7Z"/><path class="cls-1" d="M118.83,77.78H3.51a3.51,3.51,0,0,1,0-7H118.83a3.51,3.51,0,1,1,0,7Z"/><path class="cls-1" d="M254.85,116a3.55,3.55,0,0,1-1.38-.28L247.19,113a17.08,17.08,0,0,1-8.14-6.8l-5.57-8.61a3.51,3.51,0,1,1,5.9-3.81l5.58,8.64a10.27,10.27,0,0,0,4.91,4.09l6.36,2.72a3.51,3.51,0,0,1-1.38,6.73Z"/><path class="cls-1" d="M202.43,116a3.51,3.51,0,0,1-1.38-6.73l6.29-2.69a10.31,10.31,0,0,0,5-4.09l5.61-8.67a3.51,3.51,0,1,1,5.89,3.81l-5.59,8.64A17.12,17.12,0,0,1,210,113l-6.21,2.65A3.55,3.55,0,0,1,202.43,116Z"/><path class="cls-1" d="M160.87,93.73A3.51,3.51,0,0,1,158,92.29a17.22,17.22,0,0,1-3.31-10.17V72.25a3.51,3.51,0,0,1,7,0v9.87a10.19,10.19,0,0,0,2,6,3.51,3.51,0,0,1-2.84,5.57Z"/><path class="cls-1" d="M176.94,102.84a3.51,3.51,0,0,1-2.84-5.57L177.19,93a10.23,10.23,0,0,0,2-6V72.25a3.51,3.51,0,1,1,7,0V87a17.21,17.21,0,0,1-3.3,10.17l-3.09,4.25A3.52,3.52,0,0,1,176.94,102.84Z"/><path class="cls-1" d="M189.2,14.35H142.47a3.51,3.51,0,1,1,0-7H189.2a3.51,3.51,0,1,1,0,7Z"/><path class="cls-1" d="M180.71,63.76H153.29a3.51,3.51,0,0,1-3.51-3.51V30.34a3.51,3.51,0,0,1,7,0v26.4h23.91a5,5,0,0,0,5-5V33.85h-20.8a3.51,3.51,0,1,1,0-7H189.2a3.51,3.51,0,0,1,3.51,3.51V51.76A12,12,0,0,1,180.71,63.76Z"/><path class="cls-1" d="M145.46,113.29a3.51,3.51,0,0,1-1-6.88l51.4-15.26a3.5,3.5,0,1,1,2,6.72l-51.39,15.27A3.52,3.52,0,0,1,145.46,113.29Z"/><path class="cls-1" d="M249.7,91.24H208.37a3.51,3.51,0,0,1-3.51-3.51V30.34a3.51,3.51,0,0,1,3.51-3.51h14l4.32-12.48h-22a3.51,3.51,0,1,1,0-7h27A3.52,3.52,0,0,1,234.9,12l-6.74,19.5a3.51,3.51,0,0,1-3.32,2.36h-13V84.22h34.31V33.85h-9a3.51,3.51,0,1,1,0-7h12.5a3.51,3.51,0,0,1,3.51,3.51V87.73A3.51,3.51,0,0,1,249.7,91.24Z"/><path class="cls-1" d="M256.3,14.35H242.44a3.51,3.51,0,1,1,0-7H256.3a3.51,3.51,0,0,1,0,7Z"/><path class="cls-1" d="M236.43,52.8H208.37a3.51,3.51,0,1,1,0-7h28.06a3.51,3.51,0,0,1,0,7Z"/><path class="cls-1" d="M236.43,72.14H208.37a3.51,3.51,0,1,1,0-7h28.06a3.51,3.51,0,0,1,0,7Z"/></g></g></svg>