<svg xmlns="http://www.w3.org/2000/svg" viewBox="0 0 634.64 121.97"><defs><style>.cls-1{fill:#f1c36a;}</style></defs><g id="Layer_2" data-name="Layer 2"><g id="Layer_1-2" data-name="Layer 1"><path class="cls-1" d="M37.74,37.51A3.5,3.5,0,0,1,34.24,34V21.39H9.09a3.5,3.5,0,0,1,0-7H37.74a3.5,3.5,0,0,1,3.5,3.5V34A3.5,3.5,0,0,1,37.74,37.51Z"/><path class="cls-1" d="M110.28,21.39H49.06a3.5,3.5,0,0,1,0-7h61.22a3.5,3.5,0,0,1,0,7Z"/><path class="cls-1" d="M82.65,32.25H52.79a3.5,3.5,0,0,1,0-7H79.16V4.35a3.5,3.5,0,1,1,7,0v24.4A3.5,3.5,0,0,1,82.65,32.25Z"/><path class="cls-1" d="M100.67,96.39h-82a3.5,3.5,0,0,1-3.5-3.5V61.29a3.5,3.5,0,0,1,3.5-3.5H45.32a3.5,3.5,0,1,1,0,7H22.14v24.6h75V64.79H59.51a3.5,3.5,0,0,1-3.5-3.5V48.89H3.5a3.5,3.5,0,0,1,0-7h56a3.5,3.5,0,0,1,3.5,3.5v12.4h37.66a3.5,3.5,0,0,1,3.5,3.5v31.6A3.5,3.5,0,0,1,100.67,96.39Z"/><path class="cls-1" d="M115.5,48.89H70.31a3.5,3.5,0,0,1,0-7H115.5a3.5,3.5,0,0,1,0,7Z"/><path class="cls-1" d="M59.51,96.39a3.5,3.5,0,0,1-3.5-3.5V61.29a3.5,3.5,0,0,1,7,0v31.6A3.5,3.5,0,0,1,59.51,96.39Z"/><path class="cls-1" d="M98.06,80.49H31.89a3.5,3.5,0,0,1,0-7H98.06a3.5,3.5,0,0,1,0,7Z"/><path class="cls-1" d="M17.28,121.12H12.94a3.5,3.5,0,1,1,0-7h4.34a13.53,13.53,0,0,0,9.65-4l8.34-8.33a3.5,3.5,0,0,1,4.94,4.95l-8.33,8.33A20.49,20.49,0,0,1,17.28,121.12Z"/><path class="cls-1" d="M104.47,121.12h-4.34a20.53,20.53,0,0,1-14.61-6.05l-8.33-8.33a3.5,3.5,0,1,1,5-4.95l8.33,8.33a13.57,13.57,0,0,0,9.66,4h4.34a3.5,3.5,0,0,1,0,7Z"/><path class="cls-1" d="M424.41,37.51a3.49,3.49,0,0,1-3.5-3.49V21.39H395.75a3.5,3.5,0,0,1,0-7h28.66a3.5,3.5,0,0,1,3.49,3.5V34A3.49,3.49,0,0,1,424.41,37.51Z"/><path class="cls-1" d="M496.94,21.39H435.72a3.5,3.5,0,0,1,0-7h61.22a3.5,3.5,0,1,1,0,7Z"/><path class="cls-1" d="M469.32,32.25H439.46a3.5,3.5,0,1,1,0-7h26.36V4.35a3.5,3.5,0,0,1,7,0V28.76A3.5,3.5,0,0,1,469.32,32.25Z"/><path class="cls-1" d="M487.34,96.39h-82a3.5,3.5,0,0,1-3.5-3.5V61.29a3.5,3.5,0,0,1,3.5-3.5H432a3.5,3.5,0,0,1,0,7H408.8v24.6h75V64.79H446.18a3.5,3.5,0,0,1-3.5-3.5V48.89H390.16a3.5,3.5,0,0,1,0-7h56a3.49,3.49,0,0,1,3.49,3.49v12.4h37.67a3.5,3.5,0,0,1,3.49,3.5v31.6A3.5,3.5,0,0,1,487.34,96.39Z"/><path class="cls-1" d="M502.17,48.89H457a3.5,3.5,0,1,1,0-7h45.19a3.5,3.5,0,0,1,0,7Z"/><path class="cls-1" d="M446.18,96.39a3.5,3.5,0,0,1-3.5-3.5V61.29a3.5,3.5,0,1,1,7,0v31.6A3.5,3.5,0,0,1,446.18,96.39Z"/><path class="cls-1" d="M484.73,80.49H418.56a3.5,3.5,0,0,1,0-7h66.17a3.5,3.5,0,0,1,0,7Z"/><path class="cls-1" d="M403.94,121.12h-4.33a3.5,3.5,0,0,1,0-7h4.33a13.57,13.57,0,0,0,9.66-4l8.33-8.33a3.5,3.5,0,0,1,4.95,4.95l-8.33,8.33A20.53,20.53,0,0,1,403.94,121.12Z"/><path class="cls-1" d="M491.13,121.12H486.8a20.53,20.53,0,0,1-14.61-6.05l-8.33-8.33a3.5,3.5,0,0,1,4.95-4.95l8.33,8.33a13.57,13.57,0,0,0,9.66,4h4.33a3.5,3.5,0,0,1,0,7Z"/><path class="cls-1" d="M303.51,122a3.5,3.5,0,0,1-2.87-5.5l7.9-11.34a114.15,114.15,0,0,0,20.62-65.62V26.64A9.2,9.2,0,0,0,320,17.45h-12.6a3.5,3.5,0,0,1,0-7H320a16.2,16.2,0,0,1,16.19,16.19V39.51a121.19,121.19,0,0,1-21.87,69.62l-7.91,11.34A3.51,3.51,0,0,1,303.51,122Z"/><path class="cls-1" d="M346.15,121.11a3.5,3.5,0,1,1,0-7A20.91,20.91,0,0,0,367,93.24V57.61a2.84,2.84,0,0,0-2.84-2.83H362.6a9.86,9.86,0,0,1-9.84-9.84V25a7.61,7.61,0,0,0-7.59-7.59h-5.11a3.5,3.5,0,0,1,0-7h5.11A14.6,14.6,0,0,1,359.76,25v19.9a2.84,2.84,0,0,0,2.84,2.84h1.59A9.84,9.84,0,0,1,374,57.61V93.24A27.9,27.9,0,0,1,346.15,121.11Z"/><path class="cls-1" d="M306.43,98.26a3.46,3.46,0,0,1-2.47-1L275.41,68.68a3.46,3.46,0,0,1-1-2.47V29.63a3.5,3.5,0,0,1,3.5-3.5,7,7,0,0,0,7-7V3.5a3.5,3.5,0,1,1,7,0V19.16a14,14,0,0,1-10.47,13.52V64.76l27.53,27.53a3.5,3.5,0,0,1,0,4.94A3.47,3.47,0,0,1,306.43,98.26Z"/><path class="cls-1" d="M274,116.74a3.46,3.46,0,0,1-2.1-.71,3.49,3.49,0,0,1-.69-4.89L285.64,92a67.8,67.8,0,0,0,13.54-40.52V29.63a3.5,3.5,0,1,1,7,0V51.47A74.83,74.83,0,0,1,291.23,96.2l-14.41,19.14A3.48,3.48,0,0,1,274,116.74Z"/><path class="cls-1" d="M277.88,33.13h-9.44a3.5,3.5,0,1,1,0-7h9.44a3.5,3.5,0,0,1,0,7Z"/><path class="cls-1" d="M605.71,24.28a3.5,3.5,0,0,1-2.47-6L607.53,14a13.61,13.61,0,0,0,4-9.67,3.5,3.5,0,0,1,7,0,20.53,20.53,0,0,1-6,14.61l-4.29,4.29A3.47,3.47,0,0,1,605.71,24.28Z"/><path class="cls-1" d="M581.21,24.28a3.48,3.48,0,0,1-2.48-1L574.45,19a20.5,20.5,0,0,1-6.06-14.61,3.5,3.5,0,0,1,7,0,13.61,13.61,0,0,0,4,9.67l4.29,4.29a3.5,3.5,0,0,1-2.47,6Z"/><path class="cls-1" d="M560,57.2H549.42a12.64,12.64,0,0,1-12.63-12.63V6.33a3.5,3.5,0,0,1,7,0V44.57a5.64,5.64,0,0,0,5.63,5.63H560a3.5,3.5,0,0,1,0,7Z"/><path class="cls-1" d="M538.64,121.11a3.5,3.5,0,0,1-3.5-3.5V65a5.64,5.64,0,0,0-5.63-5.64h-7.39a3.5,3.5,0,1,1,0-7h7.39A12.64,12.64,0,0,1,542.14,65v52.6A3.5,3.5,0,0,1,538.64,121.11Z"/><path class="cls-1" d="M512,103.33a3.5,3.5,0,0,1,0-7,10.16,10.16,0,0,0,10.06-8.86l2.33-18.13a3.5,3.5,0,1,1,6.94.89L529,88.36A17.18,17.18,0,0,1,512,103.33Z"/><path class="cls-1" d="M527.89,47.51a3.5,3.5,0,0,1-3.47-3.06l-2.33-18.13a10,10,0,0,0-2.55-5.53,3.5,3.5,0,1,1,5.16-4.72A17,17,0,0,1,529,25.43l2.33,18.13a3.51,3.51,0,0,1-3.47,3.95Z"/><path class="cls-1" d="M550.14,47.51l-.45,0a3.5,3.5,0,0,1-3-3.92L549,25.43a17,17,0,0,1,4.32-9.36,3.5,3.5,0,1,1,5.17,4.72,10,10,0,0,0-2.55,5.53l-2.33,18.13A3.5,3.5,0,0,1,550.14,47.51Z"/><path class="cls-1" d="M555.91,98.86a3.48,3.48,0,0,1-2.59-1.14A17,17,0,0,1,549,88.36l-2.33-18.13a3.5,3.5,0,1,1,6.94-.89l2.33,18.13A10,10,0,0,0,558.5,93a3.52,3.52,0,0,1-.24,4.95A3.47,3.47,0,0,1,555.91,98.86Z"/><path class="cls-1" d="M594.62,80.18a3.5,3.5,0,0,1-3.5-3.5V38.48a5,5,0,0,0-5-5H564a3.5,3.5,0,1,1,0-7h22.14a12,12,0,0,1,12,12v38.2A3.5,3.5,0,0,1,594.62,80.18Z"/><path class="cls-1" d="M628.54,34.64H602.86a3.5,3.5,0,0,1,0-7h25.68a3.5,3.5,0,1,1,0,7Z"/><path class="cls-1" d="M625.43,56.85H568.62a3.5,3.5,0,0,1,0-7h56.81a3.5,3.5,0,0,1,0,7Z"/><path class="cls-1" d="M631.14,80.18H561.88a3.5,3.5,0,0,1,0-7h69.26a3.5,3.5,0,0,1,0,7Z"/><path class="cls-1" d="M584.41,121.11a3.49,3.49,0,0,1-3.5-3.5V89.5a3.5,3.5,0,1,1,7,0v28.11A3.49,3.49,0,0,1,584.41,121.11Z"/><path class="cls-1" d="M602.46,121.11a3.5,3.5,0,0,1-3.5-3.5V89.5a3.5,3.5,0,0,1,7,0v28.11A3.5,3.5,0,0,1,602.46,121.11Z"/><path class="cls-1" d="M624.32,121.11a3.49,3.49,0,0,1-3.5-3.5v-11a15.43,15.43,0,0,0-3-9.17l-4.28-5.9a3.5,3.5,0,0,1,5.66-4.11l4.28,5.89a22.43,22.43,0,0,1,4.32,13.29v11A3.49,3.49,0,0,1,624.32,121.11Z"/><path class="cls-1" d="M562.55,121.11a3.5,3.5,0,0,1-3.5-3.5v-11a22.52,22.52,0,0,1,4.32-13.29l4.29-5.89a3.5,3.5,0,0,1,5.66,4.11L569,97.45a15.51,15.51,0,0,0-3,9.17v11A3.5,3.5,0,0,1,562.55,121.11Z"/><path class="cls-1" d="M213.74,112.45a3.5,3.5,0,0,1-2.47-6l8.33-8.33a13.57,13.57,0,0,0,4-9.66V84.15a3.5,3.5,0,0,1,7,0v4.34a20.53,20.53,0,0,1-6,14.61l-8.33,8.32A3.48,3.48,0,0,1,213.74,112.45Z"/><path class="cls-1" d="M169.66,112.45a3.48,3.48,0,0,1-2.48-1l-8.33-8.33a20.52,20.52,0,0,1-6-14.6V84.15a3.5,3.5,0,0,1,7,0v4.34a13.59,13.59,0,0,0,4,9.66l8.33,8.33a3.5,3.5,0,0,1-2.47,6Z"/><path class="cls-1" d="M249.89,42.09a3.47,3.47,0,0,1-1.72-.46L202,15.35a25,25,0,0,0-25.19.24l-43.72,26a3.5,3.5,0,0,1-3.57-6l43.71-26a32.14,32.14,0,0,1,32.24-.31l46.16,26.29a3.5,3.5,0,0,1-1.74,6.54Z"/><path class="cls-1" d="M190.6,112.45a3.5,3.5,0,0,1-3.5-3.5V42.09H156.43a3.5,3.5,0,0,1,0-7H190.6a3.5,3.5,0,0,1,3.5,3.5V109A3.5,3.5,0,0,1,190.6,112.45Z"/><path class="cls-1" d="M241.37,67.45H140.18a3.5,3.5,0,0,1,0-7H241.37a3.5,3.5,0,0,1,0,7Z"/><path class="cls-1" d="M229.15,42.09H204.83a3.5,3.5,0,0,1,0-7h24.32a3.5,3.5,0,0,1,0,7Z"/><path class="cls-1" d="M248.47,109.85h-.05c-32,.45-96.06.21-117.08-.13a3.45,3.45,0,0,0-3.51,3.48h0a3.45,3.45,0,0,0,3.39,3.48c6,.12,28.13.16,36.85.16,30.69,0,73.56.1,80.45,0a3.5,3.5,0,0,0-.05-7Z"/></g></g></svg>