<svg xmlns="http://www.w3.org/2000/svg" viewBox="0 0 632.31 403.72"><defs><style>.cls-1{fill:#fff;}</style></defs><g id="Layer_2" data-name="Layer 2"><g id="Layer_1-2" data-name="Layer 1"><path class="cls-1" d="M523.55,155.86c-2.78-1.86-4.81-4.3-8.28-2s-6,5.06-8.08,6.85-10,7.33-11.07,7.9-1.88,3.11-3.63,4.6-3.65,4.92-6,5.38-16.81,6.47-20.8,7.45-19.76,6.55-23.45,7.88-11.26,6.26-21,6.13-17.88,2.14-23.51-4.18S382.29,178,382.1,176.38s-3.93-7.81-3.93-7.81L378,129.78s-3.64-7.46-9.45-12.17S360,111.38,358,111.22s-8.45-.36-10.06-.49-39.82.7-39.82.7a13,13,0,0,1-4.76,2.55c-2.32.47-5.56.2-6.43-1.17s-3.57-4.2-4.41-5.89-3.06-6.44-3.06-6.44,3.54-27.74.64-32.21S264.33,12.42,228.85,20c0,0,15.79,34.51,15.8,58.62S240.19,134,240.19,134l-45.26,23.72s-7.41,3-8.48-3.94-5.18-32.68-5.18-32.68l-.62-28.72s2.29-12.2-3.44-17.88-25.48-35.62-31.42-46.85-17-15.71-19.11-17.51-8.57-7.45-13.14-7-8.46-6.35-12.38-1c0,0,11.15,16.2,10.19,28.1s-2.71,23.07-2.61,32.4,5.37,26.38,5.82,29.08,3,12.22-1.65,20.5-1.87,23.13-5.23,23.53-2.52,6.45-.53,6.61,12,7.62,12.92,13-3.89,7-1.07,13.22a72.39,72.39,0,0,0,6.42,11.17s7.91,17.49.85,22.47-67.91,50-67.91,50L34.94,274.81s-2.31,4.37-9,2.53c-1-.29-1.76-.53-2.29-.74-2.4,3.85-9.38,15.17-11.63,19.82-2.73,5.64-12.79,9.07-12,15S5.46,329.13,8.32,330s5.13,1.07,8.61,2.32,7,2.52,10.32,5.4,14.16,18.41,17.89,20.67,12.93,12.12,19,14.89,9.12,4.64,13.07,8.22S96.51,396.11,99.7,397a107.78,107.78,0,0,0,17.89,4.38c9.34,1.41,15.82,1.93,20.35,2.3s23.3-2,30.36-4.72,20.69-10.07,24.38-11.4,17.8-10.62,19.5-11.46,3.87-3.6,8.55-.94a70.72,70.72,0,0,1,8.64,5.91s-.07,1,10,4.72,11.18,2.86,15.31,4.17,11.42,3.85,15.84,5.52,1.09,2.69,9.48,3.69,5.59,3.39,11,1.21,5.69-1.82,6.82-3.68a19.51,19.51,0,0,0,2.3-8.29c.28-3.56,1.79-14.19,2.11-18.08s2.82-14.76.11-17.58a46.31,46.31,0,0,1-5.28-7.27s.7-12.66-2-19.07-14.33-32.44-25.7-36.94c0,0,22.79-64.32,22.58-74s4.09-50.66,3.95-52.95,6.14-3.41,6.27-5-.1-6.85-1.29-8.25-4.08-2-4.27-3.61-6.39-1.49.59-3.21,16.94-8.08,18.26-8.3,13.64-1.18,16.22,0a12.35,12.35,0,0,1,6.38,6.71c1.36,3.37,9.63,22,10.45,24s9.5,35.63,9.43,36.6,6.86,19.94,6.86,19.94,9.3,34.16,20,43.49,10.64,13.57,14,16.77a17.66,17.66,0,0,0,7.15,4.16s4.28-4.54,5.95-5.06,5.23-.23,8.47,0a59.91,59.91,0,0,0,8.5-.29l5.32-3.16s50-52.66,50.87-55.2,3-12.47,6.79-15.42,9-14.26,10-15.48,4-9.13,4-9.13,1.84-6.69,2.89-7.59,4.76-6.45,8.37-6.81,7.49-4,7.49-4S526.33,157.71,523.55,155.86ZM168.32,313.92c-.41.94-2.88,3.35-8.3,5.85s-2.77,2.05-7.13,3.66-8.82.26-15.95-.31-8-2.27-9.82-3.4-6.57-3.47-9.38-5-3.34,1-10.36-.84-9.06-.73-9.06-.73.18-2.27,1.53-2.81,2.23-3.41,3.73-5.89a73.07,73.07,0,0,0,5.47-11.29,62.29,62.29,0,0,1,5.37-10s12.84-21.77,19.46-27.1,14.23,5.38,14.23,5.38a62,62,0,0,1,1.39,7,37.2,37.2,0,0,0,2,8c.57,1,6,6.67,7.71,9.42s4.88,8.21,6.07,9.61,0,0,4.45,9.48S168.72,313,168.32,313.92Zm65.8-129a106.27,106.27,0,0,1-2.19,10.9c-.91,3.19-2.24,7.64-4.45,10.72s-2.93,12.15-5,17.52-6.19,16.12-7.41,15-7.25-7.1-7.25-7.1A186.47,186.47,0,0,1,197.07,212c-4.12-9.46,5.32-9.35,6.52-12.18s26.24-22.32,26.24-22.32a17,17,0,0,1,4.86.39S234.19,184,234.12,185Zm31.1,143.61c-1.3-.11-4.86-.39-5-2.36s.63-3.86.52-6.48.88-5.14.4-6.16,3.19-2,3.19-2S266.51,328.68,265.22,328.58Z"/><path class="cls-1" d="M631.87,233.4c-1.25-6.82-4.15-26.33-10.57-41.19S607.85,158.85,605,155s-14.82-21.82-37.54-23.65c-3.56-.29,16,17.88,16.39,35.84s-11.08,66.79-15.8,77.16-11.51,22.38-11.51,22.38l-6.71,16.49-3,15s-4,10.44-5.39,11.22-6.15,4-6.15,4,4.87.84,7.36,3.28,8.44,6.51,8.22,9.18-.94,4,1.38,6.84,2.11,5.55,6.1.49-.13-9.48,8.4-9.66,16.78-8,30.67-19,27.19-31.44,25.92-32.43.67-13.84,4.51-22.49S633.11,240.23,631.87,233.4Z"/></g></g></svg>